<svg xmlns="http://www.w3.org/2000/svg" fill-rule="evenodd" stroke-linejoin="round" stroke-miterlimit="2" clip-rule="evenodd" viewBox="0 0 64 64" id="Tomato">
  <path d="M1145.43,45.491C1145.12,45.167 1144.78,44.835 1144.41,44.503C1143.58,43.771 1142.32,43.847 1141.59,44.674C1140.85,45.5 1140.93,46.765 1141.76,47.497C1142.89,48.504 1143.6,49.493 1143.98,50.116C1140.23,58.99 1131.74,64.879 1122.67,65.856C1121.88,65.117 1120.36,63.515 1119.01,61.039C1118.47,60.071 1117.26,59.716 1116.29,60.246C1115.32,60.777 1114.97,61.993 1115.5,62.961C1116.12,64.09 1116.77,65.071 1117.39,65.905C1110.4,65.393 1103.74,62.774 1099.33,57.313C1096.01,53.207 1094,47.515 1094,40C1094,37.68 1094.27,35.536 1094.75,33.559C1095.29,33.996 1096.05,34.133 1096.74,33.858C1097.53,33.543 1098.3,33.267 1099.03,33.027C1101.57,32.326 1106.14,31.659 1111.46,33.615L1111.46,33.615C1108.66,36.752 1104.56,43.214 1106,53.14L1106.03,53.341C1106.22,54.421 1107.24,55.149 1108.32,54.974C1109.4,54.799 1110.14,53.786 1109.98,52.702C1109.96,52.571 1109.94,52.441 1109.92,52.309C1109.69,50.395 1109.03,41.117 1117.46,36.738C1119.75,37.907 1125.86,40.875 1131.1,41.958C1132.14,42.174 1133.16,41.537 1133.43,40.509C1133.7,39.481 1133.12,38.42 1132.11,38.096C1132.11,38.096 1125.72,36.126 1122.42,32.762C1123.8,30.687 1127.87,26.092 1137.02,26C1138.09,25.989 1138.96,25.141 1139,24.073C1139.04,23.005 1138.23,22.095 1137.17,22.007C1137.17,22.007 1128.11,21.256 1120.62,26.86C1118.79,23.444 1115.09,16.916 1111.5,12.834C1110.82,12.056 1109.65,11.928 1108.82,12.541C1107.98,13.153 1107.75,14.303 1108.29,15.189C1111.91,21.171 1111.69,23.499 1112.39,27.994C1109.35,27.331 1104.44,27.052 1097.84,29.208C1097.07,29.426 1096.44,29.648 1095.98,29.829C1098.18,24.681 1101.95,20.934 1106.06,18.385C1106.99,17.803 1107.28,16.569 1106.7,15.631C1106.12,14.693 1104.88,14.404 1103.94,14.986C1096.49,19.611 1090,27.65 1090,40C1090,48.621 1092.41,55.116 1096.21,59.826C1101.94,66.91 1110.88,70 1120,70C1135.2,70 1150,57.781 1150,40C1150,31.767 1148.11,24.753 1144,19.584C1139.84,14.359 1133.41,10.946 1124.17,10.169C1123.07,10.077 1122.1,10.894 1122.01,11.994C1121.91,13.094 1122.73,14.062 1123.83,14.155C1131.74,14.82 1137.31,17.603 1140.87,22.074C1144.47,26.603 1146,32.786 1146,40C1146,41.908 1145.8,43.742 1145.43,45.491ZM1116.9,55.539C1116.76,54.949 1116.64,54.335 1116.54,53.697C1116.5,53.395 1116.45,53.087 1116.42,52.774C1116.29,51.677 1115.3,50.888 1114.21,51.013C1113.11,51.137 1112.32,52.129 1112.44,53.226C1112.49,53.591 1112.53,53.95 1112.59,54.303C1112.7,55.051 1112.84,55.77 1113.01,56.461C1113.26,57.535 1114.34,58.201 1115.41,57.946C1116.49,57.692 1117.15,56.613 1116.9,55.539ZM1116.39,47.195C1116.42,46.886 1116.46,46.573 1116.5,46.257C1116.64,45.162 1115.87,44.158 1114.77,44.017C1113.68,43.875 1112.67,44.648 1112.53,45.743C1112.49,46.101 1112.45,46.455 1112.41,46.805C1112.31,47.904 1113.11,48.883 1114.21,48.991C1115.31,49.098 1116.29,48.293 1116.39,47.195ZM1139.81,41.571C1139.45,41.414 1139.08,41.264 1138.69,41.122C1137.65,40.742 1136.5,41.276 1136.12,42.312C1135.74,43.349 1136.28,44.498 1137.31,44.878C1137.62,44.99 1137.91,45.109 1138.19,45.233C1139.21,45.677 1140.39,45.218 1140.83,44.207C1141.28,43.197 1140.82,42.016 1139.81,41.571ZM1118.57,31.393C1118.42,31.247 1118.3,31.078 1118.21,30.89C1118.21,30.89 1117.47,29.4 1116.29,27.258C1116.46,28.239 1116.66,29.319 1116.95,30.546C1117.07,31.05 1116.98,31.568 1116.73,31.999C1116.84,32.177 1116.91,32.372 1116.95,32.577C1117.31,32.475 1117.69,32.475 1118.05,32.576C1118.07,32.462 1118.11,32.35 1118.15,32.24C1118.15,32.24 1118.28,31.92 1118.57,31.393ZM1116.71,10.249C1116.36,10.3 1116,10.359 1115.64,10.426C1114.55,10.625 1113.83,11.668 1114.03,12.754C1114.23,13.839 1115.28,14.559 1116.36,14.36C1116.67,14.303 1116.98,14.252 1117.29,14.209C1118.38,14.051 1119.14,13.037 1118.98,11.944C1118.82,10.851 1117.81,10.092 1116.71,10.249Z" transform="translate(-1088 -8.083)" fill="#8e8e8e" class="color000000 svgShape"></path>
</svg>
