<svg xmlns="http://www.w3.org/2000/svg" xmlns:xlink="http://www.w3.org/1999/xlink" width="500" zoomAndPan="magnify" viewBox="0 0 375 374.999991" height="500" preserveAspectRatio="xMidYMid meet" version="1.0"><defs><clipPath id="178dd58935"><path d="M 260 36 L 347.933594 36 L 347.933594 93 L 260 93 Z M 260 36 " clip-rule="nonzero"/></clipPath></defs><rect x="-37.5" width="450" fill="#ffffff" y="-37.499999" height="449.999989" fill-opacity="1"/><rect x="-37.5" width="450" fill="#000000" y="-37.499999" height="449.999989" fill-opacity="1"/><path fill="#8e8e93" d="M 131.882812 189.488281 C 143.675781 186.132812 156.25 188.269531 168.320312 190.4375 C 167.96875 192.804688 167.804688 195.199219 167.851562 197.582031 C 159.605469 198.085938 151.363281 198.582031 143.117188 199.085938 C 142.613281 203.277344 141.652344 207.570312 141.929688 211.78125 C 148.894531 212.34375 155.945312 211.828125 162.757812 210.28125 L 164.460938 210.082031 C 165.6875 223.0625 165.609375 236.167969 164.242188 249.140625 C 164.214844 249.375 164.183594 249.632812 164.03125 249.8125 C 163.851562 250.03125 163.539062 250.097656 163.261719 250.148438 C 152.753906 251.972656 145.378906 252.675781 134.714844 252.226562 C 134.078125 247.316406 133.945312 245.671875 134.316406 240.71875 L 135.949219 238.980469 C 139.980469 239.757812 140.730469 240.261719 144.835938 240.480469 C 147.125 240.605469 149.484375 240.632812 151.640625 239.84375 C 152.183594 239.644531 152.742188 239.371094 153.046875 238.875 C 153.304688 238.46875 153.339844 237.964844 153.378906 237.488281 C 153.710938 233.230469 154.054688 225.636719 154.386719 221.378906 C 147.449219 221.160156 140.503906 221.445312 133.601562 222.246094 C 132.253906 212.019531 131.425781 201.738281 131.121094 191.425781 Z M 131.882812 189.488281 " fill-opacity="1" fill-rule="nonzero"/><path fill="#8e8e93" d="M 89.070312 250.601562 C 100.863281 253.957031 113.4375 251.816406 125.507812 249.652344 C 125.15625 247.285156 124.992188 244.890625 125.039062 242.503906 C 116.792969 242 108.550781 241.507812 100.304688 241.003906 C 99.800781 236.8125 98.839844 232.515625 99.117188 228.308594 C 106.082031 227.746094 113.132812 228.257812 119.945312 229.808594 L 121.648438 230.007812 C 122.875 217.027344 122.796875 203.921875 121.429688 190.949219 C 121.402344 190.710938 121.371094 190.457031 121.21875 190.273438 C 121.039062 190.054688 120.726562 189.988281 120.449219 189.941406 C 109.941406 188.117188 99.230469 187.414062 88.566406 187.859375 C 87.929688 192.773438 87.796875 194.417969 88.167969 199.371094 L 89.800781 201.109375 C 93.832031 200.328125 97.917969 199.824219 102.023438 199.605469 C 104.3125 199.484375 106.671875 199.457031 108.828125 200.242188 C 109.371094 200.445312 109.929688 200.71875 110.234375 201.214844 C 110.492188 201.621094 110.527344 202.125 110.566406 202.601562 C 110.898438 206.859375 111.242188 214.453125 111.574219 218.707031 C 104.636719 218.925781 97.691406 218.640625 90.789062 217.84375 C 89.441406 228.070312 88.613281 238.351562 88.308594 248.664062 Z M 89.070312 250.601562 " fill-opacity="1" fill-rule="nonzero"/><path fill="#8e8e93" d="M 173.648438 200.40625 C 178.542969 200.1875 183.449219 200.167969 188.351562 200.328125 C 188.722656 203.703125 188.730469 207.105469 188.371094 210.480469 L 188.085938 212.464844 C 188.046875 212.40625 188.191406 212.40625 188.191406 212.476562 C 188.179688 212.542969 188.105469 212.570312 188.039062 212.578125 C 186.851562 212.808594 185.632812 212.863281 184.417969 212.902344 C 181.042969 213.015625 177.667969 213.035156 174.296875 212.960938 C 174.03125 212.949219 173.714844 212.929688 173.546875 212.722656 C 173.414062 212.550781 173.402344 212.324219 173.402344 212.105469 C 173.382812 208.550781 173.363281 204.996094 173.347656 201.449219 Z M 173.648438 200.40625 " fill-opacity="1" fill-rule="nonzero"/><path fill="#8e8e93" d="M 188.371094 237.660156 C 188.722656 234.285156 188.722656 230.871094 188.351562 227.507812 C 183.457031 227.347656 178.542969 227.375 173.648438 227.585938 L 173.347656 228.621094 C 173.363281 232.175781 173.382812 235.730469 173.402344 239.273438 C 173.402344 239.492188 173.414062 239.71875 173.546875 239.890625 C 173.714844 240.101562 174.019531 240.121094 174.296875 240.128906 C 177.667969 240.214844 181.042969 240.195312 184.417969 240.070312 C 185.625 240.035156 186.839844 239.976562 188.039062 239.75 C 188.105469 239.738281 188.179688 239.710938 188.191406 239.644531 C 188.199219 239.578125 188.058594 239.578125 188.085938 239.636719 Z M 188.371094 237.660156 " fill-opacity="1" fill-rule="nonzero"/><path fill="#8e8e93" d="M 177.871094 298.761719 C 179.265625 287.816406 179.371094 276.695312 178.171875 265.71875 C 173.574219 265.730469 168.972656 265.597656 164.382812 265.320312 L 162.910156 265.816406 C 162.417969 277.285156 162.359375 288.777344 162.738281 300.246094 C 168.574219 300.777344 172.054688 301.253906 177.90625 301.378906 Z M 177.871094 298.761719 " fill-opacity="1" fill-rule="nonzero"/><path fill="#8e8e93" d="M 203.472656 298.761719 C 204.867188 287.816406 204.972656 276.695312 203.777344 265.71875 C 199.175781 265.730469 194.578125 265.597656 189.984375 265.320312 L 188.511719 265.816406 C 188.019531 277.285156 187.960938 288.777344 188.34375 300.246094 C 194.175781 300.777344 197.65625 301.253906 203.507812 301.378906 Z M 203.472656 298.761719 " fill-opacity="1" fill-rule="nonzero"/><path fill="#8e8e93" d="M 293.707031 319.273438 C 262.070312 355.984375 212.167969 375.039062 164.515625 369.773438 C 118.710938 364.71875 75.433594 337.253906 52.1875 296.695312 C 28.953125 256.125 26.984375 203.285156 48.613281 161.804688 C 62.839844 134.519531 86.351562 112.796875 113.371094 98.796875 C 125.15625 92.695312 147.402344 81.214844 175.863281 81.214844 C 180.5 99.757812 174.199219 106.246094 174.199219 106.246094 C 157.132812 108.851562 140.445312 113.886719 125.078125 121.851562 C 102.707031 133.4375 83.246094 151.417969 71.46875 174.007812 C 53.566406 208.351562 55.191406 252.085938 74.4375 285.671875 C 93.671875 319.246094 129.496094 341.976562 167.414062 346.167969 C 206.863281 350.519531 248.164062 334.753906 274.355469 304.363281 C 300.539062 273.972656 310.515625 229.601562 298.96875 190.902344 C 294.046875 174.367188 285.191406 159.152344 273.625 146.523438 L 271.316406 146.523438 C 278.8125 135.042969 278.824219 133.351562 290.4375 126.0625 C 305.566406 141.789062 317.148438 161.109375 323.441406 182.21875 C 337.390625 228.964844 325.332031 282.5625 293.707031 319.273438 Z M 293.707031 319.273438 " fill-opacity="1" fill-rule="nonzero"/><path fill="#000000" d="M 287.726562 126.335938 C 305.886719 144.839844 318.773438 168.171875 324.125 193.582031 C 329.125 217.371094 327.613281 242.382812 320.5625 265.597656 C 313.511719 288.835938 300.824219 310.253906 283.328125 327.140625 C 266.011719 343.859375 244.46875 356.011719 221.367188 362.65625 C 198.453125 369.25 174.03125 370.390625 150.679688 365.382812 C 127.738281 360.453125 105.976562 349.980469 87.796875 335.144531 C 69.171875 319.949219 54.269531 300.257812 45.507812 277.8125 C 36.347656 254.328125 33.402344 228.335938 37.316406 203.410156 C 41.203125 178.664062 51.914062 155.617188 68.324219 136.695312 C 85.15625 117.28125 106.957031 102.550781 130.835938 93.21875 C 137.414062 90.652344 144.132812 88.476562 150.945312 86.652344 C 153.597656 85.9375 152.476562 81.816406 149.804688 82.527344 C 123.328125 89.625 98.402344 102.257812 78.007812 120.703125 C 58.9375 137.949219 44.386719 159.980469 37.117188 184.714844 C 29.835938 209.5 29.570312 236.273438 35.785156 261.3125 C 41.878906 285.839844 54.449219 308.355469 72.039062 326.488281 C 88.917969 343.886719 110.035156 357.117188 132.984375 364.910156 C 156.222656 372.804688 181.101562 374.6875 205.296875 370.65625 C 229.644531 366.609375 253.105469 356.621094 272.796875 341.71875 C 292.773438 326.589844 308.53125 306.546875 318.5 283.550781 C 328.421875 260.636719 332.886719 235.320312 330.851562 210.402344 C 328.714844 184.269531 319.277344 159.191406 303.539062 138.199219 C 299.617188 132.953125 295.347656 127.980469 290.757812 123.304688 C 288.820312 121.347656 285.796875 124.371094 287.726562 126.335938 Z M 287.726562 126.335938 " fill-opacity="1" fill-rule="nonzero"/><path fill="#000000" d="M 272.113281 148.03125 C 287.839844 165.28125 298.132812 187.128906 300.804688 210.355469 C 303.332031 232.28125 299.683594 254.917969 290.523438 274.988281 C 281.378906 295.03125 266.839844 312.136719 248.421875 324.253906 C 230.203125 336.246094 208.792969 343.382812 187.003906 344.550781 C 165.601562 345.703125 144.191406 340.921875 125.203125 331.019531 C 106.300781 321.164062 89.886719 306.492188 78.558594 288.386719 C 66.472656 269.066406 60.5625 246.183594 61.140625 223.441406 C 61.71875 200.578125 69.09375 178.414062 82.75 160.035156 C 96.40625 141.65625 115.554688 127.5625 136.617188 118.792969 C 148.523438 113.832031 161.078125 110.457031 173.8125 108.453125 C 175.132812 108.242188 175.636719 107.929688 176.347656 106.949219 C 176.746094 106.398438 177.089844 105.820312 177.386719 105.210938 C 178.753906 102.40625 179.371094 99.339844 179.609375 96.238281 C 180.007812 91.011719 179.171875 85.710938 177.925781 80.644531 C 177.269531 77.972656 173.144531 79.105469 173.800781 81.785156 C 175.257812 87.695312 176.195312 94.214844 174.703125 100.117188 C 174.496094 100.964844 174.21875 101.78125 173.90625 102.589844 C 173.746094 103.007812 174.066406 102.238281 173.867188 102.664062 C 173.800781 102.796875 173.746094 102.929688 173.6875 103.0625 C 173.554688 103.328125 173.421875 103.585938 173.28125 103.84375 C 173.089844 104.175781 172.851562 104.480469 172.652344 104.800781 C 172.777344 104.59375 172.996094 104.421875 172.679688 104.734375 C 172.996094 104.554688 173.308594 104.363281 173.621094 104.183594 C 150.167969 107.785156 127.246094 116.042969 107.832031 129.863281 C 90.277344 142.359375 75.507812 159.125 66.726562 178.910156 C 57.796875 199.054688 55.019531 221.550781 57.976562 243.339844 C 60.882812 264.78125 69.476562 285.089844 82.988281 301.984375 C 95.742188 317.921875 112.609375 330.589844 131.339844 338.679688 C 150.375 346.898438 171.207031 350.414062 191.886719 348.476562 C 212.660156 346.527344 232.941406 339.515625 250.398438 328.0625 C 268.121094 316.441406 282.605469 300.378906 292.148438 281.441406 C 301.628906 262.59375 306.441406 241.363281 305.785156 220.265625 C 305.089844 198.039062 298.125 176.34375 285.476562 158.019531 C 282.320312 153.449219 278.851562 149.105469 275.117188 145 C 273.28125 142.96875 270.261719 146 272.113281 148.03125 Z M 272.113281 148.03125 " fill-opacity="1" fill-rule="nonzero"/><path fill="#000000" d="M 273.167969 147.605469 C 274.6875 145.277344 276.160156 142.921875 277.683594 140.589844 C 278.214844 139.773438 278.765625 138.964844 279.335938 138.167969 C 279.488281 137.960938 279.640625 137.75 279.792969 137.542969 C 279.867188 137.4375 279.945312 137.339844 280.019531 137.238281 C 279.878906 137.417969 279.878906 137.417969 280.03125 137.226562 C 280.296875 136.894531 280.570312 136.5625 280.847656 136.230469 C 283.917969 132.675781 287.519531 130.421875 291.519531 127.90625 C 293.847656 126.441406 291.699219 122.746094 289.363281 124.207031 C 285.257812 126.792969 281.027344 129.5 277.824219 133.199219 C 274.601562 136.933594 272.160156 141.3125 269.472656 145.429688 C 267.960938 147.757812 271.667969 149.90625 273.167969 147.605469 Z M 273.167969 147.605469 " fill-opacity="1" fill-rule="nonzero"/><path fill="#000000" d="M 128.976562 191.425781 C 129.289062 201.734375 130.125 212.015625 131.457031 222.242188 C 131.589844 223.289062 132.328125 224.523438 133.59375 224.382812 C 140.492188 223.601562 147.441406 223.308594 154.378906 223.515625 C 153.664062 222.804688 152.953125 222.089844 152.238281 221.378906 C 151.832031 226.605469 151.648438 231.851562 151.261719 237.078125 C 151.222656 237.582031 151.335938 237.570312 151.0625 237.78125 C 150.5 238.199219 149.378906 238.257812 148.703125 238.332031 C 147.070312 238.503906 145.398438 238.398438 143.761719 238.273438 C 141.300781 238.085938 138.925781 237.390625 136.5 236.917969 C 133.8125 236.394531 132.664062 240.507812 135.359375 241.039062 C 138.375 241.628906 141.292969 242.398438 144.371094 242.589844 C 147.582031 242.796875 153.09375 243.121094 154.949219 239.796875 C 155.6875 238.464844 155.566406 236.601562 155.667969 235.109375 C 155.765625 233.589844 155.859375 232.058594 155.945312 230.539062 C 156.117188 227.480469 156.277344 224.429688 156.515625 221.378906 C 156.609375 220.199219 155.460938 219.269531 154.378906 219.238281 C 147.441406 219.03125 140.492188 219.316406 133.59375 220.105469 C 134.304688 220.816406 135.019531 221.53125 135.730469 222.242188 C 134.390625 212.015625 133.566406 201.734375 133.25 191.425781 C 133.164062 188.675781 128.890625 188.667969 128.976562 191.425781 Z M 128.976562 191.425781 " fill-opacity="1" fill-rule="nonzero"/><path fill="#000000" d="M 132.167969 240.710938 C 131.882812 244.617188 132.074219 248.339844 132.566406 252.21875 C 132.71875 253.40625 133.421875 254.308594 134.707031 254.355469 C 143.601562 254.71875 152.363281 254.082031 161.144531 252.65625 C 162.160156 252.492188 163.261719 252.410156 164.242188 252.09375 C 165.648438 251.636719 166.207031 250.507812 166.371094 249.128906 C 166.664062 246.667969 166.84375 244.179688 167.007812 241.707031 C 167.339844 236.746094 167.480469 231.785156 167.445312 226.816406 C 167.398438 221.226562 167.101562 215.640625 166.589844 210.082031 C 166.484375 208.929688 165.6875 207.941406 164.449219 207.941406 C 163.375 207.941406 162.207031 208.921875 162.3125 210.082031 C 162.910156 216.570312 163.207031 223.089844 163.175781 229.609375 C 163.160156 232.792969 163.0625 235.976562 162.890625 239.152344 C 162.808594 240.777344 162.691406 242.402344 162.570312 244.027344 C 162.511719 244.796875 162.445312 245.574219 162.371094 246.34375 C 162.332031 246.8125 162.285156 247.277344 162.238281 247.734375 C 162.21875 247.886719 162.207031 248.046875 162.1875 248.199219 C 162.054688 248.710938 162.09375 248.808594 162.292969 248.464844 C 162.605469 248.285156 162.921875 248.09375 163.234375 247.914062 C 162.171875 248.3125 160.90625 248.378906 159.785156 248.558594 C 158.519531 248.757812 157.257812 248.957031 155.992188 249.128906 C 153.742188 249.445312 151.488281 249.691406 149.21875 249.871094 C 144.378906 250.25 139.53125 250.269531 134.695312 250.070312 C 135.410156 250.785156 136.121094 251.496094 136.835938 252.207031 C 136.339844 248.332031 136.148438 244.605469 136.433594 240.699219 C 136.519531 239.550781 135.390625 238.5625 134.296875 238.5625 C 133.082031 238.570312 132.253906 239.558594 132.167969 240.710938 Z M 132.167969 240.710938 " fill-opacity="1" fill-rule="nonzero"/><path fill="#000000" d="M 132.445312 191.550781 C 144.027344 188.316406 156.15625 190.429688 167.75 192.5 C 167.253906 191.625 166.75 190.742188 166.257812 189.867188 C 165.886719 192.433594 165.675781 194.988281 165.714844 197.582031 C 166.425781 196.871094 167.140625 196.160156 167.851562 195.445312 C 159.605469 195.949219 151.363281 196.445312 143.117188 196.945312 C 141.851562 197.023438 141.128906 197.878906 140.976562 199.085938 C 140.453125 203.304688 139.550781 207.503906 139.789062 211.78125 C 139.855469 213.007812 140.722656 213.824219 141.929688 213.921875 C 149.09375 214.472656 156.304688 213.921875 163.320312 212.34375 C 166 211.742188 164.867188 207.621094 162.179688 208.21875 C 155.527344 209.710938 148.722656 210.15625 141.917969 209.644531 C 142.632812 210.355469 143.34375 211.070312 144.058594 211.78125 C 143.820312 207.503906 144.722656 203.304688 145.246094 199.085938 C 144.53125 199.796875 143.820312 200.511719 143.105469 201.222656 C 151.355469 200.71875 159.59375 200.226562 167.84375 199.722656 C 168.984375 199.65625 170 198.800781 169.980469 197.582031 C 169.953125 195.390625 170.046875 193.183594 170.371094 191.007812 C 170.523438 189.953125 170.125 188.601562 168.878906 188.375 C 156.515625 186.160156 143.65625 183.984375 131.304688 187.425781 C 128.660156 188.15625 129.792969 192.289062 132.445312 191.550781 Z M 132.445312 191.550781 " fill-opacity="1" fill-rule="nonzero"/><path fill="#8e8e93" d="M 230.660156 194.542969 L 230.167969 190.265625 C 218.085938 188.109375 209.003906 185.960938 197.21875 189.316406 L 196.449219 191.253906 C 196.753906 201.554688 196.449219 226.550781 198.9375 248.140625 L 200.050781 252.046875 C 210.710938 252.492188 218.085938 251.800781 228.597656 249.964844 C 228.882812 249.917969 229.1875 249.851562 229.378906 249.632812 C 229.53125 249.453125 229.558594 249.1875 229.585938 248.957031 C 230.945312 235.984375 231.875 207.523438 230.660156 194.542969 Z M 219.710938 203.09375 C 219.378906 207.351562 219.046875 233.050781 218.707031 237.316406 L 216.964844 239.671875 C 214.808594 240.460938 212.453125 240.425781 210.160156 240.300781 L 208.082031 240.375 C 207.804688 236.167969 207.261719 204.558594 208.460938 198.914062 C 212.945312 197.5625 216.207031 197.925781 219.710938 198.886719 Z M 219.710938 203.09375 " fill-opacity="1" fill-rule="nonzero"/><path fill="#000000" d="M 216.519531 237.601562 C 215.777344 237.867188 215.007812 238.046875 214.230469 238.152344 C 214.417969 238.125 214.609375 238.105469 214.796875 238.074219 C 213.304688 238.273438 211.796875 238.238281 210.292969 238.152344 C 209.171875 238.09375 208.109375 239.179688 208.15625 240.289062 C 208.214844 241.496094 209.097656 242.363281 210.292969 242.429688 C 212.757812 242.5625 215.320312 242.5625 217.667969 241.714844 C 218.203125 241.523438 218.65625 241.230469 218.941406 240.738281 C 219.207031 240.28125 219.324219 239.605469 219.160156 239.09375 C 218.808594 238.054688 217.640625 237.191406 216.519531 237.601562 Z M 216.519531 237.601562 " fill-opacity="1" fill-rule="nonzero"/><path fill="#000000" d="M 217.699219 203.097656 C 217.382812 207.144531 217.402344 211.238281 217.308594 215.296875 C 217.175781 220.800781 217.070312 226.3125 216.917969 231.816406 C 216.863281 233.648438 216.832031 235.484375 216.699219 237.308594 C 216.613281 238.457031 217.746094 239.445312 218.839844 239.445312 C 220.0625 239.445312 220.890625 238.46875 220.976562 237.308594 C 221.289062 233.257812 221.269531 229.164062 221.367188 225.105469 C 221.488281 219.601562 221.605469 214.089844 221.753906 208.589844 C 221.8125 206.753906 221.839844 204.921875 221.972656 203.097656 C 222.058594 201.945312 220.929688 200.957031 219.835938 200.957031 C 218.601562 200.957031 217.785156 201.9375 217.699219 203.097656 Z M 217.699219 203.097656 " fill-opacity="1" fill-rule="nonzero"/><path fill="#000000" d="M 194.433594 191.246094 C 194.851562 205.355469 194.746094 219.46875 195.648438 233.570312 C 195.964844 238.4375 196.371094 243.292969 196.921875 248.132812 C 197.054688 249.28125 197.816406 250.269531 199.0625 250.269531 C 200.117188 250.269531 201.332031 249.289062 201.199219 248.132812 C 199.375 232.15625 199.070312 216.058594 198.863281 199.988281 C 198.824219 197.070312 198.796875 194.152344 198.710938 191.246094 C 198.625 188.496094 194.347656 188.488281 194.433594 191.246094 Z M 194.433594 191.246094 " fill-opacity="1" fill-rule="nonzero"/><path fill="#000000" d="M 200.171875 254.175781 C 207.082031 254.460938 213.964844 254.222656 220.816406 253.320312 C 222.675781 253.070312 224.539062 252.804688 226.394531 252.5 C 228 252.246094 230.382812 252.265625 231.335938 250.695312 C 231.972656 249.660156 231.914062 248.195312 232.027344 247 C 232.132812 245.898438 232.21875 244.785156 232.304688 243.683594 C 233.140625 232.714844 233.492188 221.691406 233.484375 210.695312 C 233.472656 205.308594 233.417969 199.890625 232.914062 194.523438 C 232.808594 193.371094 232.007812 192.382812 230.773438 192.382812 C 229.699219 192.382812 228.53125 193.363281 228.636719 194.523438 C 229.261719 201.269531 229.246094 208.09375 229.1875 214.867188 C 229.109375 222.691406 228.855469 230.519531 228.390625 238.332031 C 228.273438 240.25 228.152344 242.160156 228 244.082031 C 227.933594 244.9375 227.867188 245.78125 227.789062 246.636719 C 227.761719 246.988281 227.722656 247.351562 227.695312 247.703125 C 227.675781 247.890625 227.648438 248.082031 227.636719 248.273438 C 227.628906 248.347656 227.621094 248.425781 227.621094 248.492188 C 227.5625 248.863281 227.609375 248.785156 227.769531 248.261719 C 228.085938 248.082031 228.398438 247.890625 228.710938 247.710938 C 227.648438 248.109375 226.382812 248.175781 225.261719 248.359375 C 224 248.558594 222.734375 248.757812 221.46875 248.929688 C 219.21875 249.242188 216.964844 249.488281 214.695312 249.667969 C 209.859375 250.050781 205.011719 250.070312 200.171875 249.871094 C 197.417969 249.785156 197.417969 254.058594 200.171875 254.175781 Z M 200.171875 254.175781 " fill-opacity="1" fill-rule="nonzero"/><path fill="#000000" d="M 220.40625 196.8125 C 216.234375 195.691406 212.167969 195.625 208.003906 196.84375 C 207.320312 197.042969 206.65625 197.613281 206.511719 198.335938 C 206.09375 200.367188 206.027344 202.496094 205.933594 204.570312 C 205.789062 207.734375 205.742188 210.898438 205.714844 214.054688 C 205.65625 220.761719 205.714844 227.460938 205.867188 234.171875 C 205.914062 236.234375 205.933594 238.304688 206.066406 240.359375 C 206.238281 243.09375 210.511719 243.113281 210.34375 240.359375 C 210.039062 235.617188 210.066406 230.84375 210.019531 226.09375 C 209.953125 219.414062 209.925781 212.722656 210.152344 206.042969 C 210.199219 204.625 210.265625 203.210938 210.371094 201.792969 C 210.410156 201.253906 210.464844 200.71875 210.523438 200.179688 C 210.578125 199.597656 210.4375 200.578125 210.542969 200.035156 C 210.578125 199.847656 210.609375 199.644531 210.644531 199.457031 C 210.152344 199.949219 209.648438 200.453125 209.152344 200.949219 C 212.605469 199.941406 215.824219 199.988281 219.273438 200.917969 C 221.925781 201.652344 223.066406 197.527344 220.40625 196.8125 Z M 220.40625 196.8125 " fill-opacity="1" fill-rule="nonzero"/><path fill="#000000" d="M 197.902344 191.367188 C 203.082031 189.921875 208.347656 189.457031 213.707031 189.847656 C 219.09375 190.246094 224.40625 191.359375 229.71875 192.316406 C 230.851562 192.519531 232.027344 192.015625 232.351562 190.824219 C 232.636719 189.789062 232 188.402344 230.859375 188.195312 C 225.175781 187.175781 219.484375 186 213.714844 185.570312 C 208.003906 185.152344 202.292969 185.695312 196.773438 187.242188 C 194.121094 187.984375 195.242188 192.109375 197.902344 191.367188 Z M 197.902344 191.367188 " fill-opacity="1" fill-rule="nonzero"/><path fill="#8e8e93" d="M 275.355469 194.542969 L 274.859375 190.265625 C 262.78125 188.109375 253.695312 185.960938 241.914062 189.316406 L 241.140625 191.253906 C 241.445312 201.554688 241.140625 226.550781 243.632812 248.140625 L 244.742188 252.046875 C 255.40625 252.492188 262.78125 251.800781 273.292969 249.964844 C 273.578125 249.917969 273.882812 249.851562 274.070312 249.632812 C 274.222656 249.453125 274.25 249.1875 274.28125 248.957031 C 275.640625 235.984375 276.582031 207.523438 275.355469 194.542969 Z M 264.414062 203.09375 C 264.082031 207.351562 263.75 233.050781 263.410156 237.316406 L 261.667969 239.671875 C 259.511719 240.460938 257.15625 240.425781 254.863281 240.300781 L 252.785156 240.375 C 252.507812 236.167969 251.964844 204.558594 253.164062 198.914062 C 257.648438 197.5625 260.910156 197.925781 264.414062 198.886719 Z M 264.414062 203.09375 " fill-opacity="1" fill-rule="nonzero"/><path fill="#000000" d="M 261.214844 237.601562 C 260.472656 237.867188 259.703125 238.046875 258.921875 238.152344 C 259.113281 238.125 259.304688 238.105469 259.492188 238.074219 C 258 238.273438 256.488281 238.238281 254.988281 238.152344 C 253.867188 238.09375 252.804688 239.179688 252.851562 240.289062 C 252.90625 241.496094 253.792969 242.363281 254.988281 242.429688 C 257.449219 242.5625 260.015625 242.5625 262.363281 241.714844 C 262.894531 241.523438 263.351562 241.230469 263.636719 240.738281 C 263.902344 240.28125 264.015625 239.605469 263.855469 239.09375 C 263.511719 238.054688 262.34375 237.191406 261.214844 237.601562 Z M 261.214844 237.601562 " fill-opacity="1" fill-rule="nonzero"/><path fill="#000000" d="M 262.390625 203.097656 C 262.078125 207.144531 262.097656 211.238281 262.003906 215.296875 C 261.867188 220.800781 261.765625 226.3125 261.613281 231.816406 C 261.554688 233.648438 261.527344 235.484375 261.394531 237.308594 C 261.308594 238.457031 262.4375 239.445312 263.53125 239.445312 C 264.757812 239.445312 265.585938 238.46875 265.671875 237.308594 C 265.984375 233.257812 265.964844 229.164062 266.058594 225.105469 C 266.191406 219.601562 266.296875 214.089844 266.449219 208.589844 C 266.507812 206.753906 266.535156 204.921875 266.667969 203.097656 C 266.753906 201.945312 265.621094 200.957031 264.53125 200.957031 C 263.304688 200.957031 262.488281 201.9375 262.390625 203.097656 Z M 262.390625 203.097656 " fill-opacity="1" fill-rule="nonzero"/><path fill="#000000" d="M 239.128906 191.246094 C 239.546875 205.355469 239.441406 219.46875 240.34375 233.570312 C 240.65625 238.4375 241.066406 243.292969 241.617188 248.132812 C 241.75 249.28125 242.511719 250.269531 243.753906 250.269531 C 244.8125 250.269531 246.027344 249.289062 245.894531 248.132812 C 244.070312 232.15625 243.765625 216.058594 243.554688 199.988281 C 243.519531 197.070312 243.488281 194.152344 243.402344 191.246094 C 243.328125 188.496094 239.050781 188.488281 239.128906 191.246094 Z M 239.128906 191.246094 " fill-opacity="1" fill-rule="nonzero"/><path fill="#000000" d="M 244.867188 254.175781 C 251.777344 254.460938 258.65625 254.222656 265.507812 253.320312 C 267.371094 253.070312 269.234375 252.804688 271.085938 252.5 C 272.691406 252.246094 275.078125 252.265625 276.027344 250.695312 C 276.664062 249.660156 276.609375 248.195312 276.722656 247 C 276.828125 245.898438 276.914062 244.785156 277 243.683594 C 277.835938 232.714844 278.1875 221.691406 278.175781 210.695312 C 278.167969 205.308594 278.109375 199.890625 277.605469 194.523438 C 277.503906 193.371094 276.703125 192.382812 275.46875 192.382812 C 274.394531 192.382812 273.226562 193.363281 273.328125 194.523438 C 273.957031 201.269531 273.9375 208.09375 273.882812 214.867188 C 273.804688 222.691406 273.546875 230.519531 273.082031 238.332031 C 272.96875 240.25 272.84375 242.160156 272.691406 244.082031 C 272.625 244.9375 272.558594 245.78125 272.484375 246.636719 C 272.457031 246.988281 272.417969 247.351562 272.390625 247.703125 C 272.371094 247.890625 272.339844 248.082031 272.332031 248.273438 C 272.324219 248.347656 272.3125 248.425781 272.3125 248.492188 C 272.257812 248.863281 272.304688 248.785156 272.464844 248.261719 C 272.777344 248.082031 273.09375 247.890625 273.40625 247.710938 C 272.339844 248.109375 271.078125 248.175781 269.957031 248.359375 C 268.691406 248.558594 267.429688 248.757812 266.164062 248.929688 C 263.914062 249.242188 261.660156 249.488281 259.390625 249.667969 C 254.550781 250.050781 249.703125 250.070312 244.867188 249.871094 C 242.113281 249.785156 242.121094 254.058594 244.867188 254.175781 Z M 244.867188 254.175781 " fill-opacity="1" fill-rule="nonzero"/><path fill="#000000" d="M 265.101562 196.8125 C 260.929688 195.691406 256.859375 195.625 252.699219 196.84375 C 252.015625 197.042969 251.347656 197.613281 251.207031 198.335938 C 250.789062 200.367188 250.722656 202.496094 250.625 204.570312 C 250.484375 207.734375 250.4375 210.898438 250.40625 214.054688 C 250.351562 220.761719 250.40625 227.460938 250.558594 234.171875 C 250.609375 236.234375 250.625 238.304688 250.757812 240.359375 C 250.929688 243.09375 255.207031 243.113281 255.035156 240.359375 C 254.730469 235.617188 254.761719 230.84375 254.714844 226.09375 C 254.648438 219.414062 254.617188 212.722656 254.847656 206.042969 C 254.894531 204.625 254.960938 203.210938 255.066406 201.792969 C 255.101562 201.253906 255.160156 200.71875 255.214844 200.179688 C 255.273438 199.597656 255.132812 200.578125 255.234375 200.035156 C 255.273438 199.847656 255.300781 199.644531 255.339844 199.457031 C 254.847656 199.949219 254.34375 200.453125 253.847656 200.949219 C 257.296875 199.941406 260.519531 199.988281 263.96875 200.917969 C 266.628906 201.652344 267.761719 197.527344 265.101562 196.8125 Z M 265.101562 196.8125 " fill-opacity="1" fill-rule="nonzero"/><path fill="#000000" d="M 242.605469 191.367188 C 247.785156 189.921875 253.050781 189.457031 258.410156 189.847656 C 263.796875 190.246094 269.109375 191.359375 274.421875 192.316406 C 275.554688 192.519531 276.730469 192.015625 277.054688 190.824219 C 277.339844 189.789062 276.703125 188.402344 275.5625 188.195312 C 269.878906 187.175781 264.1875 186 258.417969 185.570312 C 252.707031 185.152344 246.996094 185.695312 241.476562 187.242188 C 238.824219 187.984375 239.945312 192.109375 242.605469 191.367188 Z M 242.605469 191.367188 " fill-opacity="1" fill-rule="nonzero"/><path fill="#000000" d="M 90.449219 248.664062 C 90.761719 238.351562 91.597656 228.070312 92.929688 217.84375 C 92.214844 218.558594 91.503906 219.269531 90.789062 219.984375 C 97.691406 220.761719 104.636719 221.058594 111.574219 220.847656 C 112.65625 220.820312 113.808594 219.886719 113.710938 218.710938 C 113.476562 215.660156 113.324219 212.597656 113.140625 209.546875 C 113.058594 208.027344 112.972656 206.496094 112.867188 204.976562 C 112.773438 203.484375 112.886719 201.621094 112.144531 200.292969 C 110.28125 196.957031 104.78125 197.308594 101.558594 197.5 C 97.414062 197.746094 93.300781 198.277344 89.222656 199.046875 C 88.09375 199.265625 87.445312 200.625 87.730469 201.679688 C 88.054688 202.867188 89.222656 203.390625 90.363281 203.171875 C 93.765625 202.527344 97.195312 202.070312 100.644531 201.832031 C 102.386719 201.707031 104.152344 201.574219 105.890625 201.757812 C 106.605469 201.832031 107.375 201.964844 108.039062 202.230469 C 108.589844 202.449219 108.398438 202.402344 108.449219 203 C 108.835938 208.226562 109.019531 213.472656 109.425781 218.699219 C 110.140625 217.988281 110.851562 217.273438 111.566406 216.5625 C 104.628906 216.769531 97.679688 216.484375 90.78125 215.695312 C 89.527344 215.554688 88.777344 216.800781 88.644531 217.835938 C 87.304688 228.0625 86.476562 238.34375 86.164062 248.65625 C 86.085938 251.421875 90.363281 251.421875 90.449219 248.664062 Z M 90.449219 248.664062 " fill-opacity="1" fill-rule="nonzero"/><path fill="#000000" d="M 90.304688 199.378906 C 90.019531 195.472656 90.210938 191.75 90.707031 187.871094 C 89.992188 188.585938 89.28125 189.296875 88.566406 190.011719 C 93.972656 189.792969 99.390625 189.847656 104.796875 190.210938 C 107.421875 190.378906 110.042969 190.628906 112.648438 190.941406 C 113.996094 191.101562 115.335938 191.285156 116.675781 191.492188 C 117.902344 191.671875 119.28125 191.738281 120.441406 192.175781 C 120.128906 191.996094 119.8125 191.804688 119.5 191.625 C 119.347656 191.351562 119.300781 191.359375 119.375 191.652344 C 119.394531 191.882812 119.425781 192.121094 119.441406 192.347656 C 119.480469 192.738281 119.519531 193.117188 119.558594 193.507812 C 119.625 194.277344 119.691406 195.054688 119.757812 195.824219 C 119.890625 197.449219 119.996094 199.074219 120.089844 200.699219 C 120.269531 203.960938 120.363281 207.210938 120.382812 210.480469 C 120.421875 217 120.128906 223.519531 119.519531 230.007812 C 119.414062 231.160156 120.574219 232.148438 121.65625 232.148438 C 122.902344 232.148438 123.691406 231.167969 123.796875 230.007812 C 124.71875 220.117188 124.90625 210.15625 124.335938 200.234375 C 124.195312 197.753906 124.003906 195.273438 123.765625 192.804688 C 123.664062 191.691406 123.710938 190.351562 123.160156 189.355469 C 122.503906 188.175781 121.34375 187.929688 120.117188 187.71875 C 115.203125 186.894531 110.242188 186.304688 105.273438 185.953125 C 99.714844 185.5625 94.144531 185.496094 88.585938 185.722656 C 87.320312 185.769531 86.601562 186.675781 86.449219 187.863281 C 85.953125 191.738281 85.761719 195.464844 86.046875 199.371094 C 86.132812 200.519531 86.96875 201.507812 88.1875 201.507812 C 89.261719 201.519531 90.390625 200.539062 90.304688 199.378906 Z M 90.304688 199.378906 " fill-opacity="1" fill-rule="nonzero"/><path fill="#000000" d="M 88.511719 252.664062 C 100.863281 256.105469 113.722656 253.929688 126.085938 251.714844 C 127.320312 251.496094 127.730469 250.136719 127.578125 249.082031 C 127.265625 246.90625 127.160156 244.699219 127.1875 242.503906 C 127.207031 241.296875 126.191406 240.433594 125.050781 240.367188 C 116.800781 239.863281 108.5625 239.367188 100.3125 238.867188 C 101.027344 239.578125 101.738281 240.289062 102.453125 241.003906 C 101.929688 236.785156 101.027344 232.582031 101.261719 228.308594 C 100.550781 229.019531 99.839844 229.734375 99.125 230.445312 C 105.921875 229.921875 112.734375 230.378906 119.386719 231.871094 C 122.066406 232.46875 123.214844 228.34375 120.527344 227.746094 C 113.511719 226.179688 106.300781 225.628906 99.132812 226.167969 C 97.929688 226.265625 97.0625 227.070312 96.996094 228.308594 C 96.757812 232.582031 97.660156 236.773438 98.183594 241.003906 C 98.335938 242.210938 99.050781 243.066406 100.324219 243.140625 C 108.570312 243.644531 116.8125 244.140625 125.058594 244.644531 C 124.347656 243.929688 123.632812 243.21875 122.921875 242.503906 C 122.882812 245.097656 123.09375 247.65625 123.464844 250.222656 C 123.957031 249.347656 124.460938 248.464844 124.957031 247.589844 C 113.359375 249.660156 101.246094 251.769531 89.648438 248.539062 C 86.988281 247.808594 85.847656 251.933594 88.511719 252.664062 Z M 88.511719 252.664062 " fill-opacity="1" fill-rule="nonzero"/><path fill="#000000" d="M 171.207031 201.441406 C 171.21875 204.007812 171.234375 206.574219 171.246094 209.140625 C 171.246094 209.730469 171.253906 210.328125 171.253906 210.917969 C 171.253906 211.621094 171.179688 212.417969 171.386719 213.101562 C 171.890625 214.804688 173.480469 215.078125 175.019531 215.117188 C 177.480469 215.164062 179.933594 215.164062 182.394531 215.109375 C 183.628906 215.078125 184.863281 215.058594 186.089844 214.964844 C 186.746094 214.917969 187.402344 214.84375 188.046875 214.738281 C 188.914062 214.605469 189.484375 214.289062 190.023438 213.558594 C 190.546875 212.867188 190.355469 211.523438 189.691406 210.964844 C 189.671875 210.945312 189.652344 210.925781 189.632812 210.917969 C 188.769531 210.183594 187.457031 210.023438 186.613281 210.917969 C 186.601562 210.925781 186.582031 210.945312 186.574219 210.953125 C 185.777344 211.792969 185.738281 213.148438 186.574219 213.976562 C 187.371094 214.777344 188.796875 214.8125 189.597656 213.976562 C 189.605469 213.96875 189.625 213.949219 189.632812 213.9375 C 188.628906 213.9375 187.621094 213.9375 186.613281 213.9375 C 186.632812 213.957031 186.652344 213.976562 186.667969 213.988281 C 186.554688 213.121094 186.449219 212.257812 186.335938 211.390625 C 186.316406 211.421875 186.300781 211.441406 186.28125 211.46875 C 186.707031 211.144531 187.136719 210.8125 187.554688 210.488281 C 186.652344 210.792969 185.519531 210.726562 184.550781 210.765625 C 183.34375 210.8125 182.144531 210.839844 180.9375 210.859375 C 179.78125 210.878906 178.621094 210.878906 177.46875 210.878906 C 176.890625 210.878906 176.3125 210.871094 175.730469 210.859375 C 175.390625 210.851562 175.054688 210.851562 174.714844 210.839844 C 174.570312 210.839844 174.429688 210.832031 174.277344 210.832031 C 174.496094 210.886719 174.484375 210.871094 174.25 210.792969 C 174.5625 210.972656 174.875 211.164062 175.191406 211.34375 C 175.457031 211.5625 175.523438 212.617188 175.511719 211.667969 C 175.511719 211.46875 175.511719 211.269531 175.511719 211.078125 C 175.511719 210.632812 175.503906 210.195312 175.503906 209.75 C 175.492188 208.808594 175.492188 207.875 175.484375 206.933594 C 175.476562 205.109375 175.464844 203.285156 175.457031 201.460938 C 175.445312 200.300781 174.476562 199.324219 173.316406 199.324219 C 172.195312 199.304688 171.199219 200.28125 171.207031 201.441406 Z M 171.207031 201.441406 " fill-opacity="1" fill-rule="nonzero"/><path fill="#000000" d="M 173.648438 202.542969 C 178.542969 202.335938 183.449219 202.308594 188.351562 202.46875 C 187.640625 201.757812 186.925781 201.042969 186.214844 200.332031 C 186.574219 203.703125 186.582031 207.105469 186.230469 210.480469 C 186.117188 211.628906 187.296875 212.617188 188.371094 212.617188 C 189.625 212.617188 190.394531 211.628906 190.507812 210.480469 C 190.851562 207.097656 190.851562 203.703125 190.488281 200.332031 C 190.367188 199.152344 189.617188 198.230469 188.351562 198.191406 C 183.449219 198.03125 178.554688 198.058594 173.648438 198.269531 C 172.5 198.316406 171.511719 199.21875 171.511719 200.40625 C 171.511719 201.527344 172.492188 202.59375 173.648438 202.542969 Z M 173.648438 202.542969 " fill-opacity="1" fill-rule="nonzero"/><path fill="#000000" d="M 171.207031 228.621094 C 171.21875 231.1875 171.234375 233.753906 171.246094 236.320312 C 171.246094 236.90625 171.253906 237.507812 171.253906 238.09375 C 171.253906 238.796875 171.179688 239.597656 171.386719 240.28125 C 171.890625 241.980469 173.480469 242.257812 175.019531 242.296875 C 177.480469 242.34375 179.933594 242.34375 182.394531 242.285156 C 183.628906 242.257812 184.863281 242.238281 186.089844 242.144531 C 186.746094 242.097656 187.402344 242.019531 188.046875 241.914062 C 188.914062 241.78125 189.484375 241.46875 190.023438 240.738281 C 190.546875 240.042969 190.355469 238.703125 189.691406 238.144531 C 189.671875 238.125 189.652344 238.105469 189.632812 238.09375 C 188.769531 237.363281 187.457031 237.203125 186.613281 238.09375 C 186.601562 238.105469 186.582031 238.125 186.574219 238.132812 C 185.777344 238.96875 185.738281 240.328125 186.574219 241.15625 C 187.371094 241.953125 188.796875 241.992188 189.597656 241.15625 C 189.605469 241.144531 189.625 241.128906 189.632812 241.117188 C 188.628906 241.117188 187.621094 241.117188 186.613281 241.117188 C 186.632812 241.136719 186.652344 241.15625 186.667969 241.164062 C 186.554688 240.300781 186.449219 239.433594 186.335938 238.570312 C 186.316406 238.597656 186.300781 238.617188 186.28125 238.648438 C 186.707031 238.324219 187.136719 237.992188 187.554688 237.667969 C 186.652344 237.972656 185.519531 237.90625 184.550781 237.945312 C 183.34375 237.992188 182.144531 238.019531 180.9375 238.039062 C 179.78125 238.058594 178.621094 238.058594 177.46875 238.058594 C 176.890625 238.058594 176.3125 238.046875 175.730469 238.039062 C 175.390625 238.027344 175.054688 238.027344 174.714844 238.019531 C 174.570312 238.019531 174.429688 238.011719 174.277344 238.011719 C 174.496094 238.066406 174.484375 238.046875 174.25 237.972656 C 174.5625 238.152344 174.875 238.34375 175.191406 238.523438 C 175.457031 238.742188 175.523438 239.796875 175.511719 238.847656 C 175.511719 238.648438 175.511719 238.445312 175.511719 238.257812 C 175.511719 237.808594 175.503906 237.375 175.503906 236.925781 C 175.492188 235.984375 175.492188 235.054688 175.484375 234.113281 C 175.476562 232.289062 175.464844 230.464844 175.457031 228.640625 C 175.445312 227.480469 174.476562 226.5 173.316406 226.5 C 172.195312 226.484375 171.199219 227.460938 171.207031 228.621094 Z M 171.207031 228.621094 " fill-opacity="1" fill-rule="nonzero"/><path fill="#000000" d="M 173.648438 229.722656 C 178.542969 229.515625 183.449219 229.484375 188.351562 229.648438 C 187.640625 228.933594 186.925781 228.222656 186.214844 227.507812 C 186.574219 230.882812 186.582031 234.285156 186.230469 237.660156 C 186.117188 238.808594 187.296875 239.796875 188.371094 239.796875 C 189.625 239.796875 190.394531 238.808594 190.507812 237.660156 C 190.851562 234.273438 190.851562 230.882812 190.488281 227.507812 C 190.367188 226.332031 189.617188 225.410156 188.351562 225.371094 C 183.449219 225.210938 178.554688 225.238281 173.648438 225.445312 C 172.5 225.496094 171.511719 226.398438 171.511719 227.585938 C 171.511719 228.707031 172.492188 229.769531 173.648438 229.722656 Z M 173.648438 229.722656 " fill-opacity="1" fill-rule="nonzero"/><path fill="#000000" d="M 160.773438 265.808594 C 160.289062 277.277344 160.230469 288.769531 160.601562 300.238281 C 160.640625 301.472656 161.550781 302.273438 162.738281 302.375 C 167.796875 302.84375 172.824219 303.394531 177.90625 303.507812 C 180.664062 303.574219 180.664062 299.296875 177.90625 299.230469 C 172.832031 299.117188 167.796875 298.566406 162.738281 298.101562 C 163.453125 298.8125 164.164062 299.527344 164.878906 300.238281 C 164.507812 288.757812 164.566406 277.277344 165.050781 265.808594 C 165.171875 263.050781 160.898438 263.0625 160.773438 265.808594 Z M 160.773438 265.808594 " fill-opacity="1" fill-rule="nonzero"/><path fill="#000000" d="M 164.382812 267.453125 C 168.972656 267.726562 173.574219 267.859375 178.171875 267.851562 C 177.460938 267.136719 176.746094 266.425781 176.035156 265.710938 C 177.214844 276.699219 177.109375 287.789062 175.730469 298.753906 C 175.589844 299.90625 176.816406 300.894531 177.871094 300.894531 C 179.144531 300.894531 179.863281 299.90625 180.007812 298.753906 C 181.394531 287.789062 181.5 276.699219 180.3125 265.710938 C 180.1875 264.5625 179.429688 263.574219 178.171875 263.574219 C 173.574219 263.582031 168.972656 263.449219 164.382812 263.175781 C 161.636719 263.011719 161.648438 267.289062 164.382812 267.453125 Z M 164.382812 267.453125 " fill-opacity="1" fill-rule="nonzero"/><path fill="#000000" d="M 186.375 265.808594 C 185.890625 277.277344 185.832031 288.769531 186.203125 300.238281 C 186.242188 301.472656 187.152344 302.273438 188.34375 302.375 C 193.398438 302.84375 198.425781 303.394531 203.507812 303.507812 C 206.265625 303.574219 206.265625 299.296875 203.507812 299.230469 C 198.433594 299.117188 193.398438 298.566406 188.34375 298.101562 C 189.054688 298.8125 189.765625 299.527344 190.480469 300.238281 C 190.109375 288.757812 190.167969 277.277344 190.652344 265.808594 C 190.765625 263.050781 186.488281 263.0625 186.375 265.808594 Z M 186.375 265.808594 " fill-opacity="1" fill-rule="nonzero"/><path fill="#000000" d="M 189.984375 267.453125 C 194.578125 267.726562 199.175781 267.859375 203.777344 267.851562 C 203.0625 267.136719 202.351562 266.425781 201.636719 265.710938 C 202.816406 276.699219 202.710938 287.789062 201.332031 298.753906 C 201.191406 299.90625 202.417969 300.894531 203.472656 300.894531 C 204.746094 300.894531 205.46875 299.90625 205.609375 298.753906 C 206.996094 287.789062 207.101562 276.699219 205.914062 265.710938 C 205.789062 264.5625 205.03125 263.574219 203.777344 263.574219 C 199.175781 263.582031 194.578125 263.449219 189.984375 263.175781 C 187.238281 263.011719 187.25 267.289062 189.984375 267.453125 Z M 189.984375 267.453125 " fill-opacity="1" fill-rule="nonzero"/><path fill="#8e8e93" d="M 345.089844 44.257812 C 334.84375 41.511719 322.359375 46.964844 315.667969 55.203125 C 312.101562 59.605469 309.984375 64.964844 307.808594 70.183594 C 305.621094 75.410156 303.265625 80.703125 299.351562 84.789062 C 295.433594 88.875 289.617188 91.582031 284.097656 90.367188 L 273.796875 90.984375 C 294.949219 99.054688 310.898438 119.398438 313.660156 141.863281 C 309.414062 129.347656 295.3125 119.378906 283.355469 113.734375 C 271.410156 108.082031 258.449219 103.605469 249.011719 94.347656 L 244.03125 92.25 C 229.53125 112.433594 204.660156 124.722656 179.816406 123.988281 C 195.898438 119.027344 210.277344 106.695312 217.820312 91.496094 C 196.304688 71.675781 166.644531 60.984375 137.441406 62.542969 C 150.539062 55.824219 165.820312 53.464844 180.339844 55.898438 C 191.230469 57.722656 201.65625 62.257812 210.496094 68.890625 L 211.007812 65.058594 C 194.234375 58.855469 182.144531 41.957031 180.464844 24.148438 C 184.808594 32.3125 193.996094 36.652344 202.929688 39.050781 C 211.863281 41.433594 221.28125 42.480469 229.558594 46.59375 C 237.84375 50.710938 245 59.089844 243.972656 68.28125 L 246.691406 77.585938 C 252.945312 65.867188 255.167969 52.050781 252.917969 38.953125 C 250.65625 25.867188 243.9375 13.589844 234.121094 4.636719 C 244.410156 2.128906 254.210938 2.136719 264.28125 5.386719 C 277.492188 28.898438 275.914062 59.9375 260.394531 81.996094 L 262.355469 83.839844 C 273.09375 83.621094 281.890625 75.351562 288.355469 66.761719 C 294.808594 58.179688 300.433594 48.449219 309.574219 42.820312 C 320.277344 36.226562 334.957031 36.816406 345.089844 44.257812 Z M 345.089844 44.257812 " fill-opacity="1" fill-rule="nonzero"/><path fill="#000000" d="M 262.25 83.078125 C 270.480469 71.3125 274.871094 57.085938 275.316406 42.773438 C 275.542969 35.5625 274.746094 28.28125 272.941406 21.296875 C 272.039062 17.800781 270.851562 14.398438 269.441406 11.070312 C 268.75 9.4375 268 7.828125 267.179688 6.253906 C 266.78125 5.492188 266.410156 4.496094 265.804688 3.875 C 265.023438 3.097656 263.484375 2.886719 262.457031 2.613281 C 252.953125 0.0195312 243.101562 0.285156 233.566406 2.574219 C 232.039062 2.945312 231.449219 5.074219 232.628906 6.148438 C 247.339844 19.660156 254.378906 40.167969 250.664062 59.851562 C 249.5625 65.667969 247.632812 71.273438 244.867188 76.511719 C 243.585938 78.941406 247.273438 81.109375 248.5625 78.667969 C 258.855469 59.203125 258.230469 35.292969 246.683594 16.515625 C 243.640625 11.574219 239.925781 7.050781 235.660156 3.125 C 235.34375 4.3125 235.03125 5.511719 234.71875 6.699219 C 244.390625 4.371094 254.21875 4.417969 263.742188 7.449219 C 263.3125 7.125 262.886719 6.792969 262.46875 6.472656 C 272.476562 24.394531 273.683594 46.535156 266.59375 65.703125 C 264.597656 71.09375 261.878906 76.207031 258.589844 80.910156 C 257.925781 81.859375 258.417969 83.285156 259.359375 83.835938 C 260.386719 84.464844 261.582031 84.019531 262.25 83.078125 Z M 262.25 83.078125 " fill-opacity="1" fill-rule="nonzero"/><path fill="#000000" d="M 246.113281 68.28125 C 247.214844 57.304688 238.28125 48.066406 228.910156 43.933594 C 218 39.132812 205.65625 38.984375 194.863281 33.9375 C 189.730469 31.542969 185.074219 28.128906 182.328125 23.066406 C 181.355469 21.289062 178.125 21.992188 178.34375 24.148438 C 179.789062 38.839844 187.554688 52.582031 199.5 61.277344 C 202.863281 63.730469 206.550781 65.660156 210.445312 67.121094 C 211.53125 67.53125 212.792969 66.675781 213.078125 65.628906 C 213.410156 64.433594 212.671875 63.40625 211.585938 62.996094 C 199.15625 58.339844 189.464844 47.46875 185.09375 35.058594 C 183.847656 31.53125 182.980469 27.863281 182.621094 24.136719 C 181.289062 24.5 179.960938 24.859375 178.640625 25.222656 C 183.800781 34.726562 194.453125 39.183594 204.449219 41.632812 C 215.3125 44.304688 227.714844 45.472656 236.011719 53.808594 C 239.867188 57.675781 242.40625 62.722656 241.855469 68.28125 C 241.742188 69.429688 242.917969 70.417969 243.992188 70.417969 C 245.21875 70.417969 245.988281 69.441406 246.113281 68.28125 Z M 246.113281 68.28125 " fill-opacity="1" fill-rule="nonzero"/><path fill="#000000" d="M 220.226562 74.667969 C 212.242188 66.398438 202.292969 60.15625 191.410156 56.476562 C 180.027344 52.636719 167.75 51.886719 155.945312 54.035156 C 149.132812 55.28125 142.535156 57.550781 136.367188 60.6875 C 134.496094 61.636719 135.359375 64.78125 137.453125 64.667969 C 160.125 63.5 182.898438 69.695312 201.988281 81.945312 C 207.386719 85.414062 212.453125 89.359375 217.128906 93.75 C 219.132812 95.628906 222.164062 92.609375 220.148438 90.726562 C 202.890625 74.550781 180.597656 64.230469 157.179688 61.171875 C 150.640625 60.316406 144.039062 60.050781 137.453125 60.390625 C 137.8125 61.722656 138.175781 63.054688 138.535156 64.375 C 148.867188 59.117188 160.496094 56.65625 172.074219 57.160156 C 183 57.636719 193.722656 60.933594 203.121094 66.511719 C 208.308594 69.589844 213.023438 73.34375 217.214844 77.679688 C 219.113281 79.675781 222.136719 76.644531 220.226562 74.667969 Z M 220.226562 74.667969 " fill-opacity="1" fill-rule="nonzero"/><g clip-path="url(#178dd58935)"><path fill="#000000" d="M 262.355469 85.976562 C 276.617188 85.558594 286.1875 73.546875 293.78125 62.910156 C 297.667969 57.464844 301.5625 51.917969 306.6875 47.546875 C 311.484375 43.449219 317.433594 40.929688 323.734375 40.472656 C 330.949219 39.953125 338.132812 41.851562 344.007812 46.101562 C 344.558594 44.796875 345.109375 43.496094 345.648438 42.195312 C 335.511719 39.570312 324.410156 43.773438 316.941406 50.71875 C 312.671875 54.691406 309.917969 59.792969 307.636719 65.089844 C 305.308594 70.484375 303.3125 76.148438 299.804688 80.929688 C 296.414062 85.566406 290.644531 89.53125 284.648438 88.304688 C 281.960938 87.753906 280.808594 91.878906 283.507812 92.429688 C 289.332031 93.625 295.074219 91.441406 299.472656 87.609375 C 303.875 83.78125 306.582031 78.402344 308.84375 73.128906 C 311.183594 67.683594 313.195312 61.921875 316.816406 57.152344 C 319.847656 53.160156 324.078125 50.109375 328.621094 48.078125 C 333.542969 45.882812 339.226562 44.949219 344.5 46.320312 C 346.960938 46.957031 348.046875 43.792969 346.144531 42.414062 C 335.300781 34.5625 319.675781 33.984375 308.3125 41.074219 C 296.355469 48.535156 290.769531 62.027344 281.207031 71.855469 C 276.160156 77.035156 269.792969 81.480469 262.335938 81.710938 C 259.605469 81.785156 259.597656 86.0625 262.355469 85.976562 Z M 262.355469 85.976562 " fill-opacity="1" fill-rule="nonzero"/></g><path fill="#000000" d="M 273.234375 93.046875 C 288.972656 99.097656 301.832031 112.320312 307.929688 127.988281 C 309.660156 132.445312 310.925781 137.121094 311.523438 141.863281 C 312.921875 141.675781 314.328125 141.484375 315.722656 141.292969 C 312.265625 131.324219 304.035156 123.789062 295.453125 118.085938 C 286.300781 112.003906 275.90625 108.402344 266.144531 103.460938 C 260.5 100.601562 255.082031 97.273438 250.523438 92.835938 C 248.546875 90.917969 245.523438 93.9375 247.5 95.859375 C 255.644531 103.785156 266.136719 108.308594 276.363281 112.878906 C 285.828125 117.097656 295.074219 121.886719 302.570312 129.1875 C 306.421875 132.929688 309.824219 137.3125 311.601562 142.433594 C 311.953125 143.433594 312.855469 144.125 313.945312 143.964844 C 314.886719 143.820312 315.933594 142.929688 315.800781 141.863281 C 313.480469 123.511719 303.132812 106.777344 288.023438 96.152344 C 283.785156 93.179688 279.195312 90.773438 274.367188 88.921875 C 273.292969 88.503906 272.019531 89.378906 271.734375 90.414062 C 271.402344 91.628906 272.152344 92.636719 273.234375 93.046875 Z M 273.234375 93.046875 " fill-opacity="1" fill-rule="nonzero"/><path fill="#000000" d="M 242.1875 91.164062 C 231.15625 106.425781 214.066406 116.921875 195.660156 120.550781 C 190.441406 121.578125 185.128906 121.996094 179.816406 121.851562 C 180.007812 123.25 180.199219 124.65625 180.386719 126.050781 C 195.640625 121.292969 208.984375 110.609375 217.261719 96.964844 C 219.589844 93.125 221.480469 89.019531 222.90625 84.761719 C 223.78125 82.148438 219.65625 81.027344 218.78125 83.621094 C 214.066406 97.683594 203.566406 109.613281 190.746094 116.910156 C 187.097656 118.992188 183.257812 120.671875 179.257812 121.917969 C 176.957031 122.628906 177.386719 126.050781 179.828125 126.121094 C 199.773438 126.652344 219.578125 119.132812 234.5 105.953125 C 238.765625 102.179688 242.558594 97.933594 245.894531 93.3125 C 246.570312 92.371094 246.054688 90.929688 245.125 90.386719 C 244.03125 89.769531 242.871094 90.234375 242.1875 91.164062 Z M 242.1875 91.164062 " fill-opacity="1" fill-rule="nonzero"/></svg>