<svg xmlns="http://www.w3.org/2000/svg" xmlns:xlink="http://www.w3.org/1999/xlink" width="500" viewBox="0 0 375 375" height="500" preserveAspectRatio="xMidYMid meet" version="1.0"><rect x="-37.5" width="450" fill="#ffffff" y="-37.499999" height="449.999989" fill-opacity="1"/><rect x="-37.5" width="450" fill="#000000" y="-37.499999" height="449.999989" fill-opacity="1"/><path fill="#ffffff" d="M 131.839844 189.488281 C 143.628906 186.132812 156.199219 188.269531 168.261719 190.4375 C 167.910156 192.804688 167.75 195.199219 167.796875 197.582031 C 159.550781 198.085938 151.316406 198.582031 143.070312 199.085938 C 142.566406 203.277344 141.605469 207.570312 141.882812 211.78125 C 148.84375 212.34375 155.894531 211.828125 162.703125 210.28125 L 164.40625 210.082031 C 165.628906 223.0625 165.554688 236.167969 164.1875 249.140625 C 164.15625 249.375 164.128906 249.632812 163.976562 249.8125 C 163.796875 250.03125 163.484375 250.097656 163.207031 250.148438 C 152.703125 251.972656 145.332031 252.675781 134.671875 252.226562 C 134.035156 247.316406 133.902344 245.671875 134.273438 240.71875 L 135.90625 238.980469 C 139.933594 239.757812 140.683594 240.261719 144.789062 240.480469 C 147.078125 240.605469 149.433594 240.632812 151.589844 239.84375 C 152.132812 239.644531 152.691406 239.371094 152.996094 238.875 C 153.253906 238.46875 153.289062 237.964844 153.328125 237.488281 C 153.660156 233.230469 154.003906 225.636719 154.335938 221.378906 C 147.402344 221.160156 140.457031 221.445312 133.558594 222.246094 C 132.210938 212.019531 131.386719 201.738281 131.082031 191.425781 Z M 131.839844 189.488281 " fill-opacity="1" fill-rule="nonzero"/><path fill="#ffffff" d="M 89.046875 250.601562 C 100.835938 253.957031 113.402344 251.816406 125.464844 249.652344 C 125.117188 247.285156 124.953125 244.890625 125 242.503906 C 116.753906 242 108.519531 241.507812 100.273438 241.003906 C 99.769531 236.8125 98.8125 232.515625 99.085938 228.308594 C 106.050781 227.746094 113.097656 228.257812 119.910156 229.808594 L 121.609375 230.007812 C 122.835938 217.027344 122.757812 203.921875 121.390625 190.949219 C 121.363281 190.710938 121.335938 190.457031 121.183594 190.273438 C 121.003906 190.054688 120.6875 189.988281 120.414062 189.941406 C 109.90625 188.117188 99.199219 187.414062 88.542969 187.859375 C 87.90625 192.773438 87.773438 194.417969 88.144531 199.371094 L 89.777344 201.109375 C 93.804688 200.328125 97.890625 199.824219 101.992188 199.605469 C 104.28125 199.484375 106.640625 199.457031 108.796875 200.242188 C 109.335938 200.445312 109.898438 200.71875 110.199219 201.214844 C 110.457031 201.621094 110.496094 202.125 110.535156 202.601562 C 110.867188 206.859375 111.207031 214.453125 111.539062 218.707031 C 104.605469 218.925781 97.660156 218.640625 90.765625 217.84375 C 89.417969 228.070312 88.589844 238.351562 88.285156 248.664062 Z M 89.046875 250.601562 " fill-opacity="1" fill-rule="nonzero"/><path fill="#ffffff" d="M 173.589844 200.40625 C 178.484375 200.1875 183.386719 200.167969 188.285156 200.328125 C 188.65625 203.703125 188.667969 207.105469 188.304688 210.480469 L 188.019531 212.464844 C 187.984375 212.40625 188.125 212.40625 188.125 212.476562 C 188.117188 212.542969 188.039062 212.570312 187.972656 212.578125 C 186.785156 212.808594 185.570312 212.863281 184.355469 212.902344 C 180.980469 213.015625 177.609375 213.035156 174.238281 212.960938 C 173.972656 212.949219 173.65625 212.929688 173.488281 212.722656 C 173.355469 212.550781 173.34375 212.324219 173.34375 212.105469 C 173.324219 208.550781 173.304688 204.996094 173.285156 201.449219 Z M 173.589844 200.40625 " fill-opacity="1" fill-rule="nonzero"/><path fill="#ffffff" d="M 188.304688 237.660156 C 188.65625 234.285156 188.65625 230.871094 188.285156 227.507812 C 183.394531 227.347656 178.484375 227.375 173.589844 227.585938 L 173.285156 228.621094 C 173.304688 232.175781 173.324219 235.730469 173.34375 239.273438 C 173.34375 239.492188 173.355469 239.71875 173.488281 239.890625 C 173.65625 240.101562 173.960938 240.121094 174.238281 240.128906 C 177.609375 240.214844 180.980469 240.195312 184.355469 240.070312 C 185.558594 240.035156 186.777344 239.976562 187.972656 239.75 C 188.039062 239.738281 188.117188 239.710938 188.125 239.644531 C 188.136719 239.578125 187.992188 239.578125 188.019531 239.636719 Z M 188.304688 237.660156 " fill-opacity="1" fill-rule="nonzero"/><path fill="#ffffff" d="M 177.808594 298.761719 C 179.207031 287.816406 179.308594 276.695312 178.113281 265.71875 C 173.515625 265.730469 168.917969 265.597656 164.328125 265.320312 L 162.855469 265.816406 C 162.363281 277.285156 162.304688 288.777344 162.6875 300.246094 C 168.519531 300.777344 171.996094 301.253906 177.847656 301.378906 Z M 177.808594 298.761719 " fill-opacity="1" fill-rule="nonzero"/><path fill="#ffffff" d="M 203.402344 298.761719 C 204.796875 287.816406 204.902344 276.695312 203.703125 265.71875 C 199.105469 265.730469 194.507812 265.597656 189.921875 265.320312 L 188.449219 265.816406 C 187.953125 277.285156 187.898438 288.777344 188.277344 300.246094 C 194.109375 300.777344 197.585938 301.253906 203.4375 301.378906 Z M 203.402344 298.761719 " fill-opacity="1" fill-rule="nonzero"/><path fill="#ffffff" d="M 293.597656 319.273438 C 261.972656 355.984375 212.09375 375.039062 164.460938 369.773438 C 118.675781 364.71875 75.414062 337.253906 52.179688 296.695312 C 28.953125 256.125 26.984375 203.285156 48.605469 161.804688 C 62.828125 134.519531 86.328125 112.796875 113.335938 98.796875 C 125.117188 92.695312 147.355469 81.214844 175.804688 81.214844 C 180.441406 99.757812 174.140625 106.246094 174.140625 106.246094 C 157.082031 108.851562 140.398438 113.886719 125.039062 121.851562 C 102.675781 133.4375 83.222656 151.417969 71.453125 174.007812 C 53.554688 208.351562 55.179688 252.085938 74.417969 285.671875 C 93.644531 319.246094 129.457031 341.976562 167.359375 346.167969 C 206.792969 350.519531 248.078125 334.753906 274.257812 304.363281 C 300.429688 273.972656 310.402344 229.601562 298.859375 190.902344 C 293.941406 174.367188 285.085938 159.152344 273.527344 146.523438 L 271.21875 146.523438 C 278.710938 135.042969 278.722656 133.351562 290.332031 126.0625 C 305.453125 141.789062 317.035156 161.109375 323.320312 182.21875 C 337.265625 228.964844 325.210938 282.5625 293.597656 319.273438 Z M 293.597656 319.273438 " fill-opacity="1" fill-rule="nonzero"/><path fill="#000000" d="M 287.621094 126.335938 C 305.777344 144.839844 318.65625 168.171875 324.003906 193.582031 C 329.003906 217.371094 327.492188 242.382812 320.445312 265.597656 C 313.394531 288.835938 300.714844 310.253906 283.222656 327.140625 C 265.917969 343.859375 244.382812 356.011719 221.289062 362.65625 C 198.382812 369.25 173.972656 370.390625 150.628906 365.382812 C 127.699219 360.453125 105.945312 349.980469 87.773438 335.144531 C 69.152344 319.949219 54.257812 300.257812 45.5 277.8125 C 36.34375 254.328125 33.398438 228.335938 37.3125 203.410156 C 41.195312 178.664062 51.902344 155.617188 68.308594 136.695312 C 85.132812 117.28125 106.921875 102.550781 130.796875 93.21875 C 137.371094 90.652344 144.085938 88.476562 150.898438 86.652344 C 153.546875 85.9375 152.425781 81.816406 149.757812 82.527344 C 123.292969 89.625 98.375 102.257812 77.988281 120.703125 C 58.921875 137.949219 44.378906 159.980469 37.113281 184.714844 C 29.835938 209.5 29.570312 236.273438 35.78125 261.3125 C 41.871094 285.839844 54.4375 308.355469 72.023438 326.488281 C 88.894531 343.886719 110 357.117188 132.941406 364.910156 C 156.167969 372.804688 181.039062 374.6875 205.222656 370.65625 C 229.5625 366.609375 253.015625 356.621094 272.699219 341.71875 C 292.667969 326.589844 308.417969 306.546875 318.382812 283.550781 C 328.300781 260.636719 332.765625 235.320312 330.730469 210.402344 C 328.59375 184.269531 319.160156 159.191406 303.429688 138.199219 C 299.507812 132.953125 295.242188 127.980469 290.652344 123.304688 C 288.714844 121.347656 285.695312 124.371094 287.621094 126.335938 Z M 287.621094 126.335938 " fill-opacity="1" fill-rule="nonzero"/><path fill="#000000" d="M 272.015625 148.03125 C 287.738281 165.28125 298.023438 187.128906 300.695312 210.355469 C 303.222656 232.28125 299.574219 254.917969 290.414062 274.988281 C 281.277344 295.03125 266.742188 312.136719 248.332031 324.253906 C 230.121094 336.246094 208.71875 343.382812 186.9375 344.550781 C 165.546875 345.703125 144.144531 340.921875 125.164062 331.019531 C 106.269531 321.164062 89.863281 306.492188 78.539062 288.386719 C 66.457031 269.066406 60.546875 246.183594 61.125 223.441406 C 61.707031 200.578125 69.078125 178.414062 82.730469 160.035156 C 96.378906 141.65625 115.519531 127.5625 136.570312 118.792969 C 148.472656 113.832031 161.023438 110.457031 173.753906 108.453125 C 175.074219 108.242188 175.578125 107.929688 176.289062 106.949219 C 176.6875 106.398438 177.03125 105.820312 177.324219 105.210938 C 178.691406 102.40625 179.308594 99.339844 179.546875 96.238281 C 179.945312 91.011719 179.109375 85.710938 177.867188 80.644531 C 177.210938 77.972656 173.085938 79.105469 173.742188 81.785156 C 175.195312 87.695312 176.136719 94.214844 174.644531 100.117188 C 174.4375 100.964844 174.160156 101.78125 173.847656 102.589844 C 173.6875 103.007812 174.007812 102.238281 173.808594 102.664062 C 173.742188 102.796875 173.6875 102.929688 173.628906 103.0625 C 173.496094 103.328125 173.363281 103.585938 173.21875 103.84375 C 173.03125 104.175781 172.792969 104.480469 172.59375 104.800781 C 172.71875 104.59375 172.9375 104.421875 172.621094 104.734375 C 172.9375 104.554688 173.25 104.363281 173.5625 104.183594 C 150.117188 107.785156 127.207031 116.042969 107.796875 129.863281 C 90.253906 142.359375 75.488281 159.125 66.710938 178.910156 C 57.78125 199.054688 55.007812 221.550781 57.964844 243.339844 C 60.871094 264.78125 69.457031 285.089844 82.964844 301.984375 C 95.714844 317.921875 112.574219 330.589844 131.300781 338.679688 C 150.328125 346.898438 171.148438 350.414062 191.820312 348.476562 C 212.585938 346.527344 232.859375 339.515625 250.308594 328.0625 C 268.027344 316.441406 282.503906 300.378906 292.039062 281.441406 C 301.519531 262.59375 306.328125 241.363281 305.671875 220.265625 C 304.976562 198.039062 298.015625 176.34375 285.371094 158.019531 C 282.21875 153.449219 278.75 149.105469 275.015625 145 C 273.183594 142.96875 270.164062 146 272.015625 148.03125 Z M 272.015625 148.03125 " fill-opacity="1" fill-rule="nonzero"/><path fill="#000000" d="M 273.070312 147.605469 C 274.589844 145.277344 276.0625 142.921875 277.582031 140.589844 C 278.113281 139.773438 278.664062 138.964844 279.234375 138.167969 C 279.386719 137.960938 279.539062 137.75 279.691406 137.542969 C 279.765625 137.4375 279.84375 137.339844 279.917969 137.238281 C 279.777344 137.417969 279.777344 137.417969 279.929688 137.226562 C 280.195312 136.894531 280.46875 136.5625 280.746094 136.230469 C 283.8125 132.675781 287.414062 130.421875 291.414062 127.90625 C 293.742188 126.441406 291.59375 122.746094 289.257812 124.207031 C 285.152344 126.792969 280.925781 129.5 277.722656 133.199219 C 274.503906 136.933594 272.0625 141.3125 269.375 145.429688 C 267.863281 147.757812 271.570312 149.90625 273.070312 147.605469 Z M 273.070312 147.605469 " fill-opacity="1" fill-rule="nonzero"/><path fill="#000000" d="M 128.933594 191.425781 C 129.246094 201.734375 130.082031 212.015625 131.414062 222.242188 C 131.546875 223.289062 132.289062 224.523438 133.550781 224.382812 C 140.449219 223.601562 147.390625 223.308594 154.324219 223.515625 C 153.613281 222.804688 152.902344 222.089844 152.1875 221.378906 C 151.78125 226.605469 151.601562 231.851562 151.210938 237.078125 C 151.171875 237.582031 151.285156 237.570312 151.011719 237.78125 C 150.449219 238.199219 149.328125 238.257812 148.65625 238.332031 C 147.019531 238.503906 145.347656 238.398438 143.714844 238.273438 C 141.253906 238.085938 138.878906 237.390625 136.457031 236.917969 C 133.769531 236.394531 132.621094 240.507812 135.316406 241.039062 C 138.328125 241.628906 141.246094 242.398438 144.324219 242.589844 C 147.535156 242.796875 153.042969 243.121094 154.894531 239.796875 C 155.636719 238.464844 155.511719 236.601562 155.617188 235.109375 C 155.714844 233.589844 155.808594 232.058594 155.894531 230.539062 C 156.066406 227.480469 156.226562 224.429688 156.464844 221.378906 C 156.558594 220.199219 155.410156 219.269531 154.324219 219.238281 C 147.390625 219.03125 140.449219 219.316406 133.550781 220.105469 C 134.261719 220.816406 134.976562 221.53125 135.6875 222.242188 C 134.347656 212.015625 133.523438 201.734375 133.207031 191.425781 C 133.125 188.675781 128.847656 188.667969 128.933594 191.425781 Z M 128.933594 191.425781 " fill-opacity="1" fill-rule="nonzero"/><path fill="#000000" d="M 132.125 240.710938 C 131.839844 244.617188 132.03125 248.339844 132.523438 252.21875 C 132.675781 253.40625 133.378906 254.308594 134.664062 254.355469 C 143.554688 254.71875 152.3125 254.082031 161.089844 252.65625 C 162.105469 252.492188 163.207031 252.410156 164.1875 252.09375 C 165.59375 251.636719 166.152344 250.507812 166.316406 249.128906 C 166.609375 246.667969 166.789062 244.179688 166.949219 241.707031 C 167.285156 236.746094 167.425781 231.785156 167.386719 226.816406 C 167.339844 221.226562 167.046875 215.640625 166.53125 210.082031 C 166.429688 208.929688 165.628906 207.941406 164.394531 207.941406 C 163.320312 207.941406 162.152344 208.921875 162.257812 210.082031 C 162.855469 216.570312 163.152344 223.089844 163.121094 229.609375 C 163.105469 232.792969 163.007812 235.976562 162.835938 239.152344 C 162.753906 240.777344 162.636719 242.402344 162.515625 244.027344 C 162.457031 244.796875 162.390625 245.574219 162.316406 246.34375 C 162.277344 246.8125 162.230469 247.277344 162.183594 247.734375 C 162.164062 247.886719 162.152344 248.046875 162.132812 248.199219 C 162 248.710938 162.039062 248.808594 162.238281 248.464844 C 162.550781 248.285156 162.867188 248.09375 163.179688 247.914062 C 162.117188 248.3125 160.851562 248.378906 159.730469 248.558594 C 158.46875 248.757812 157.203125 248.957031 155.941406 249.128906 C 153.691406 249.445312 151.4375 249.691406 149.167969 249.871094 C 144.332031 250.25 139.488281 250.269531 134.652344 250.070312 C 135.363281 250.785156 136.078125 251.496094 136.789062 252.207031 C 136.296875 248.332031 136.105469 244.605469 136.390625 240.699219 C 136.476562 239.550781 135.347656 238.5625 134.253906 238.5625 C 133.039062 238.570312 132.210938 239.558594 132.125 240.710938 Z M 132.125 240.710938 " fill-opacity="1" fill-rule="nonzero"/><path fill="#000000" d="M 132.402344 191.550781 C 143.980469 188.316406 156.101562 190.429688 167.691406 192.5 C 167.199219 191.625 166.695312 190.742188 166.199219 189.867188 C 165.828125 192.433594 165.621094 194.988281 165.660156 197.582031 C 166.371094 196.871094 167.082031 196.160156 167.796875 195.445312 C 159.550781 195.949219 151.316406 196.445312 143.070312 196.945312 C 141.804688 197.023438 141.082031 197.878906 140.933594 199.085938 C 140.410156 203.304688 139.507812 207.503906 139.746094 211.78125 C 139.8125 213.007812 140.675781 213.824219 141.882812 213.921875 C 149.042969 214.472656 156.253906 213.921875 163.265625 212.34375 C 165.945312 211.742188 164.8125 207.621094 162.125 208.21875 C 155.476562 209.710938 148.675781 210.15625 141.871094 209.644531 C 142.585938 210.355469 143.296875 211.070312 144.007812 211.78125 C 143.773438 207.503906 144.675781 203.304688 145.195312 199.085938 C 144.484375 199.796875 143.773438 200.511719 143.058594 201.222656 C 151.304688 200.71875 159.542969 200.226562 167.785156 199.722656 C 168.925781 199.65625 169.941406 198.800781 169.925781 197.582031 C 169.894531 195.390625 169.992188 193.183594 170.3125 191.007812 C 170.464844 189.953125 170.066406 188.601562 168.824219 188.375 C 156.464844 186.160156 143.609375 183.984375 131.261719 187.425781 C 128.621094 188.15625 129.75 192.289062 132.402344 191.550781 Z M 132.402344 191.550781 " fill-opacity="1" fill-rule="nonzero"/><path fill="#ffffff" d="M 230.578125 194.542969 L 230.085938 190.265625 C 218.011719 188.109375 208.929688 185.960938 197.148438 189.316406 L 196.378906 191.253906 C 196.683594 201.554688 196.378906 226.550781 198.871094 248.140625 L 199.980469 252.046875 C 210.640625 252.492188 218.011719 251.800781 228.515625 249.964844 C 228.800781 249.917969 229.105469 249.851562 229.296875 249.632812 C 229.449219 249.453125 229.476562 249.1875 229.503906 248.957031 C 230.863281 235.984375 231.792969 207.523438 230.578125 194.542969 Z M 219.636719 203.09375 C 219.300781 207.351562 218.96875 233.050781 218.628906 237.316406 L 216.890625 239.671875 C 214.734375 240.460938 212.378906 240.425781 210.089844 240.300781 L 208.007812 240.375 C 207.730469 236.167969 207.191406 204.558594 208.386719 198.914062 C 212.871094 197.5625 216.128906 197.925781 219.636719 198.886719 Z M 219.636719 203.09375 " fill-opacity="1" fill-rule="nonzero"/><path fill="#000000" d="M 216.441406 237.601562 C 215.703125 237.867188 214.933594 238.046875 214.152344 238.152344 C 214.34375 238.125 214.53125 238.105469 214.722656 238.074219 C 213.230469 238.273438 211.722656 238.238281 210.222656 238.152344 C 209.101562 238.09375 208.035156 239.179688 208.082031 240.289062 C 208.140625 241.496094 209.023438 242.363281 210.222656 242.429688 C 212.679688 242.5625 215.246094 242.5625 217.59375 241.714844 C 218.125 241.523438 218.582031 241.230469 218.867188 240.738281 C 219.132812 240.28125 219.246094 239.605469 219.085938 239.09375 C 218.734375 238.054688 217.5625 237.191406 216.441406 237.601562 Z M 216.441406 237.601562 " fill-opacity="1" fill-rule="nonzero"/><path fill="#000000" d="M 217.621094 203.097656 C 217.308594 207.144531 217.328125 211.238281 217.230469 215.296875 C 217.097656 220.800781 216.996094 226.3125 216.84375 231.816406 C 216.785156 233.648438 216.757812 235.484375 216.625 237.308594 C 216.539062 238.457031 217.667969 239.445312 218.761719 239.445312 C 219.988281 239.445312 220.8125 238.46875 220.898438 237.308594 C 221.210938 233.257812 221.191406 229.164062 221.289062 225.105469 C 221.410156 219.601562 221.527344 214.089844 221.675781 208.589844 C 221.734375 206.753906 221.761719 204.921875 221.894531 203.097656 C 221.980469 201.945312 220.851562 200.957031 219.757812 200.957031 C 218.523438 200.957031 217.707031 201.9375 217.621094 203.097656 Z M 217.621094 203.097656 " fill-opacity="1" fill-rule="nonzero"/><path fill="#000000" d="M 194.367188 191.246094 C 194.785156 205.355469 194.679688 219.46875 195.582031 233.570312 C 195.894531 238.4375 196.304688 243.292969 196.855469 248.132812 C 196.988281 249.28125 197.75 250.269531 198.992188 250.269531 C 200.046875 250.269531 201.261719 249.289062 201.128906 248.132812 C 199.304688 232.15625 199.003906 216.058594 198.792969 199.988281 C 198.753906 197.070312 198.726562 194.152344 198.640625 191.246094 C 198.554688 188.496094 194.28125 188.488281 194.367188 191.246094 Z M 194.367188 191.246094 " fill-opacity="1" fill-rule="nonzero"/><path fill="#000000" d="M 200.105469 254.175781 C 207.011719 254.460938 213.886719 254.222656 220.738281 253.320312 C 222.597656 253.070312 224.460938 252.804688 226.3125 252.5 C 227.917969 252.246094 230.304688 252.265625 231.253906 250.695312 C 231.890625 249.660156 231.832031 248.195312 231.945312 247 C 232.050781 245.898438 232.136719 244.785156 232.222656 243.683594 C 233.058594 232.714844 233.410156 221.691406 233.398438 210.695312 C 233.390625 205.308594 233.332031 199.890625 232.828125 194.523438 C 232.726562 193.371094 231.925781 192.382812 230.691406 192.382812 C 229.617188 192.382812 228.449219 193.363281 228.554688 194.523438 C 229.183594 201.269531 229.164062 208.09375 229.105469 214.867188 C 229.03125 222.691406 228.773438 230.519531 228.308594 238.332031 C 228.195312 240.25 228.070312 242.160156 227.917969 244.082031 C 227.851562 244.9375 227.785156 245.78125 227.710938 246.636719 C 227.679688 246.988281 227.644531 247.351562 227.613281 247.703125 C 227.59375 247.890625 227.566406 248.082031 227.558594 248.273438 C 227.546875 248.347656 227.539062 248.425781 227.539062 248.492188 C 227.480469 248.863281 227.527344 248.785156 227.691406 248.261719 C 228.003906 248.082031 228.316406 247.890625 228.632812 247.710938 C 227.566406 248.109375 226.304688 248.175781 225.183594 248.359375 C 223.917969 248.558594 222.65625 248.757812 221.390625 248.929688 C 219.140625 249.242188 216.890625 249.488281 214.621094 249.667969 C 209.785156 250.050781 204.9375 250.070312 200.105469 249.871094 C 197.347656 249.785156 197.347656 254.058594 200.105469 254.175781 Z M 200.105469 254.175781 " fill-opacity="1" fill-rule="nonzero"/><path fill="#000000" d="M 220.328125 196.8125 C 216.160156 195.691406 212.09375 195.625 207.933594 196.84375 C 207.246094 197.042969 206.582031 197.613281 206.441406 198.335938 C 206.023438 200.367188 205.957031 202.496094 205.859375 204.570312 C 205.71875 207.734375 205.671875 210.898438 205.640625 214.054688 C 205.585938 220.761719 205.640625 227.460938 205.792969 234.171875 C 205.84375 236.234375 205.859375 238.304688 205.992188 240.359375 C 206.164062 243.09375 210.441406 243.113281 210.269531 240.359375 C 209.964844 235.617188 209.992188 230.84375 209.945312 226.09375 C 209.878906 219.414062 209.851562 212.722656 210.078125 206.042969 C 210.125 204.625 210.191406 203.210938 210.296875 201.792969 C 210.335938 201.253906 210.390625 200.71875 210.449219 200.179688 C 210.507812 199.597656 210.363281 200.578125 210.46875 200.035156 C 210.507812 199.847656 210.535156 199.644531 210.574219 199.457031 C 210.078125 199.949219 209.574219 200.453125 209.082031 200.949219 C 212.53125 199.941406 215.75 199.988281 219.199219 200.917969 C 221.847656 201.652344 222.988281 197.527344 220.328125 196.8125 Z M 220.328125 196.8125 " fill-opacity="1" fill-rule="nonzero"/><path fill="#000000" d="M 197.832031 191.367188 C 203.011719 189.921875 208.273438 189.457031 213.632812 189.847656 C 219.019531 190.246094 224.328125 191.359375 229.636719 192.316406 C 230.769531 192.519531 231.945312 192.015625 232.269531 190.824219 C 232.554688 189.789062 231.917969 188.402344 230.777344 188.195312 C 225.097656 187.175781 219.40625 186 213.640625 185.570312 C 207.933594 185.152344 202.222656 185.695312 196.703125 187.242188 C 194.054688 187.984375 195.175781 192.109375 197.832031 191.367188 Z M 197.832031 191.367188 " fill-opacity="1" fill-rule="nonzero"/><path fill="#ffffff" d="M 275.253906 194.542969 L 274.761719 190.265625 C 262.6875 188.109375 253.605469 185.960938 241.824219 189.316406 L 241.054688 191.253906 C 241.359375 201.554688 241.054688 226.550781 243.546875 248.140625 L 244.65625 252.046875 C 255.316406 252.492188 262.6875 251.800781 273.191406 249.964844 C 273.476562 249.917969 273.78125 249.851562 273.972656 249.632812 C 274.125 249.453125 274.152344 249.1875 274.179688 248.957031 C 275.539062 235.984375 276.480469 207.523438 275.253906 194.542969 Z M 264.320312 203.09375 C 263.988281 207.351562 263.65625 233.050781 263.3125 237.316406 L 261.574219 239.671875 C 259.417969 240.460938 257.0625 240.425781 254.773438 240.300781 L 252.691406 240.375 C 252.417969 236.167969 251.875 204.558594 253.074219 198.914062 C 257.558594 197.5625 260.816406 197.925781 264.320312 198.886719 Z M 264.320312 203.09375 " fill-opacity="1" fill-rule="nonzero"/><path fill="#000000" d="M 261.121094 237.601562 C 260.378906 237.867188 259.609375 238.046875 258.828125 238.152344 C 259.019531 238.125 259.210938 238.105469 259.398438 238.074219 C 257.910156 238.273438 256.398438 238.238281 254.898438 238.152344 C 253.777344 238.09375 252.710938 239.179688 252.757812 240.289062 C 252.816406 241.496094 253.699219 242.363281 254.898438 242.429688 C 257.359375 242.5625 259.921875 242.5625 262.269531 241.714844 C 262.800781 241.523438 263.257812 241.230469 263.542969 240.738281 C 263.808594 240.28125 263.921875 239.605469 263.761719 239.09375 C 263.417969 238.054688 262.25 237.191406 261.121094 237.601562 Z M 261.121094 237.601562 " fill-opacity="1" fill-rule="nonzero"/><path fill="#000000" d="M 262.296875 203.097656 C 261.984375 207.144531 262.003906 211.238281 261.90625 215.296875 C 261.773438 220.800781 261.671875 226.3125 261.519531 231.816406 C 261.460938 233.648438 261.433594 235.484375 261.300781 237.308594 C 261.214844 238.457031 262.34375 239.445312 263.4375 239.445312 C 264.664062 239.445312 265.488281 238.46875 265.574219 237.308594 C 265.886719 233.257812 265.867188 229.164062 265.964844 225.105469 C 266.097656 219.601562 266.203125 214.089844 266.351562 208.589844 C 266.410156 206.753906 266.4375 204.921875 266.570312 203.097656 C 266.65625 201.945312 265.527344 200.957031 264.433594 200.957031 C 263.210938 200.957031 262.390625 201.9375 262.296875 203.097656 Z M 262.296875 203.097656 " fill-opacity="1" fill-rule="nonzero"/><path fill="#000000" d="M 239.042969 191.246094 C 239.460938 205.355469 239.355469 219.46875 240.257812 233.570312 C 240.570312 238.4375 240.980469 243.292969 241.53125 248.132812 C 241.664062 249.28125 242.425781 250.269531 243.667969 250.269531 C 244.722656 250.269531 245.9375 249.289062 245.804688 248.132812 C 243.980469 232.15625 243.679688 216.058594 243.46875 199.988281 C 243.429688 197.070312 243.402344 194.152344 243.316406 191.246094 C 243.242188 188.496094 238.964844 188.488281 239.042969 191.246094 Z M 239.042969 191.246094 " fill-opacity="1" fill-rule="nonzero"/><path fill="#000000" d="M 244.78125 254.175781 C 251.6875 254.460938 258.5625 254.222656 265.414062 253.320312 C 267.273438 253.070312 269.136719 252.804688 270.988281 252.5 C 272.59375 252.246094 274.980469 252.265625 275.929688 250.695312 C 276.566406 249.660156 276.507812 248.195312 276.621094 247 C 276.726562 245.898438 276.8125 244.785156 276.898438 243.683594 C 277.734375 232.714844 278.085938 221.691406 278.074219 210.695312 C 278.066406 205.308594 278.007812 199.890625 277.507812 194.523438 C 277.402344 193.371094 276.601562 192.382812 275.367188 192.382812 C 274.296875 192.382812 273.125 193.363281 273.230469 194.523438 C 273.859375 201.269531 273.839844 208.09375 273.78125 214.867188 C 273.707031 222.691406 273.449219 230.519531 272.984375 238.332031 C 272.871094 240.25 272.746094 242.160156 272.59375 244.082031 C 272.527344 244.9375 272.460938 245.78125 272.386719 246.636719 C 272.355469 246.988281 272.320312 247.351562 272.289062 247.703125 C 272.273438 247.890625 272.242188 248.082031 272.234375 248.273438 C 272.222656 248.347656 272.214844 248.425781 272.214844 248.492188 C 272.15625 248.863281 272.207031 248.785156 272.367188 248.261719 C 272.679688 248.082031 272.992188 247.890625 273.308594 247.710938 C 272.242188 248.109375 270.980469 248.175781 269.859375 248.359375 C 268.59375 248.558594 267.332031 248.757812 266.070312 248.929688 C 263.816406 249.242188 261.566406 249.488281 259.296875 249.667969 C 254.460938 250.050781 249.617188 250.070312 244.78125 249.871094 C 242.023438 249.785156 242.035156 254.058594 244.78125 254.175781 Z M 244.78125 254.175781 " fill-opacity="1" fill-rule="nonzero"/><path fill="#000000" d="M 265.003906 196.8125 C 260.835938 195.691406 256.769531 195.625 252.609375 196.84375 C 251.921875 197.042969 251.257812 197.613281 251.117188 198.335938 C 250.699219 200.367188 250.632812 202.496094 250.535156 204.570312 C 250.394531 207.734375 250.347656 210.898438 250.320312 214.054688 C 250.261719 220.761719 250.320312 227.460938 250.46875 234.171875 C 250.519531 236.234375 250.535156 238.304688 250.667969 240.359375 C 250.839844 243.09375 255.117188 243.113281 254.945312 240.359375 C 254.640625 235.617188 254.667969 230.84375 254.621094 226.09375 C 254.554688 219.414062 254.527344 212.722656 254.753906 206.042969 C 254.800781 204.625 254.867188 203.210938 254.972656 201.792969 C 255.011719 201.253906 255.066406 200.71875 255.125 200.179688 C 255.183594 199.597656 255.039062 200.578125 255.144531 200.035156 C 255.183594 199.847656 255.210938 199.644531 255.25 199.457031 C 254.753906 199.949219 254.25 200.453125 253.757812 200.949219 C 257.207031 199.941406 260.425781 199.988281 263.875 200.917969 C 266.535156 201.652344 267.664062 197.527344 265.003906 196.8125 Z M 265.003906 196.8125 " fill-opacity="1" fill-rule="nonzero"/><path fill="#000000" d="M 242.519531 191.367188 C 247.695312 189.921875 252.960938 189.457031 258.316406 189.847656 C 263.703125 190.246094 269.011719 191.359375 274.324219 192.316406 C 275.453125 192.519531 276.632812 192.015625 276.953125 190.824219 C 277.238281 189.789062 276.601562 188.402344 275.464844 188.195312 C 269.78125 187.175781 264.09375 186 258.328125 185.570312 C 252.617188 185.152344 246.90625 185.695312 241.390625 187.242188 C 238.738281 187.984375 239.859375 192.109375 242.519531 191.367188 Z M 242.519531 191.367188 " fill-opacity="1" fill-rule="nonzero"/><path fill="#000000" d="M 90.421875 248.664062 C 90.738281 238.351562 91.574219 228.070312 92.902344 217.84375 C 92.191406 218.558594 91.476562 219.269531 90.765625 219.984375 C 97.660156 220.761719 104.605469 221.058594 111.539062 220.847656 C 112.625 220.820312 113.773438 219.886719 113.679688 218.710938 C 113.441406 215.660156 113.289062 212.597656 113.109375 209.546875 C 113.023438 208.027344 112.9375 206.496094 112.832031 204.976562 C 112.738281 203.484375 112.851562 201.621094 112.109375 200.292969 C 110.25 196.957031 104.75 197.308594 101.527344 197.5 C 97.386719 197.746094 93.273438 198.277344 89.199219 199.046875 C 88.066406 199.265625 87.421875 200.625 87.707031 201.679688 C 88.027344 202.867188 89.199219 203.390625 90.335938 203.171875 C 93.738281 202.527344 97.167969 202.070312 100.617188 201.832031 C 102.355469 201.707031 104.121094 201.574219 105.859375 201.757812 C 106.570312 201.832031 107.339844 201.964844 108.007812 202.230469 C 108.558594 202.449219 108.367188 202.402344 108.414062 203 C 108.804688 208.226562 108.984375 213.472656 109.394531 218.699219 C 110.105469 217.988281 110.820312 217.273438 111.53125 216.5625 C 104.597656 216.769531 97.652344 216.484375 90.753906 215.695312 C 89.5 215.554688 88.75 216.800781 88.617188 217.835938 C 87.277344 228.0625 86.453125 238.34375 86.140625 248.65625 C 86.0625 251.421875 90.335938 251.421875 90.421875 248.664062 Z M 90.421875 248.664062 " fill-opacity="1" fill-rule="nonzero"/><path fill="#000000" d="M 90.28125 199.378906 C 89.996094 195.472656 90.1875 191.75 90.679688 187.871094 C 89.96875 188.585938 89.253906 189.296875 88.542969 190.011719 C 93.949219 189.792969 99.363281 189.847656 104.765625 190.210938 C 107.390625 190.378906 110.011719 190.628906 112.613281 190.941406 C 113.960938 191.101562 115.300781 191.285156 116.640625 191.492188 C 117.867188 191.671875 119.246094 191.738281 120.402344 192.175781 C 120.089844 191.996094 119.777344 191.804688 119.464844 191.625 C 119.3125 191.351562 119.261719 191.359375 119.339844 191.652344 C 119.359375 191.882812 119.386719 192.121094 119.40625 192.347656 C 119.445312 192.738281 119.480469 193.117188 119.519531 193.507812 C 119.585938 194.277344 119.652344 195.054688 119.71875 195.824219 C 119.851562 197.449219 119.957031 199.074219 120.050781 200.699219 C 120.234375 203.960938 120.328125 207.210938 120.347656 210.480469 C 120.382812 217 120.089844 223.519531 119.480469 230.007812 C 119.378906 231.160156 120.535156 232.148438 121.621094 232.148438 C 122.863281 232.148438 123.652344 231.167969 123.757812 230.007812 C 124.679688 220.117188 124.867188 210.15625 124.296875 200.234375 C 124.15625 197.753906 123.964844 195.273438 123.726562 192.804688 C 123.625 191.691406 123.671875 190.351562 123.121094 189.355469 C 122.464844 188.175781 121.304688 187.929688 120.082031 187.71875 C 115.167969 186.894531 110.210938 186.304688 105.242188 185.953125 C 99.683594 185.5625 94.117188 185.496094 88.5625 185.722656 C 87.296875 185.769531 86.574219 186.675781 86.425781 187.863281 C 85.929688 191.738281 85.738281 195.464844 86.023438 199.371094 C 86.109375 200.519531 86.945312 201.507812 88.164062 201.507812 C 89.234375 201.519531 90.367188 200.539062 90.28125 199.378906 Z M 90.28125 199.378906 " fill-opacity="1" fill-rule="nonzero"/><path fill="#000000" d="M 88.484375 252.664062 C 100.835938 256.105469 113.6875 253.929688 126.046875 251.714844 C 127.28125 251.496094 127.691406 250.136719 127.539062 249.082031 C 127.222656 246.90625 127.121094 244.699219 127.148438 242.503906 C 127.167969 241.296875 126.152344 240.433594 125.011719 240.367188 C 116.765625 239.863281 108.527344 239.367188 100.285156 238.867188 C 100.996094 239.578125 101.707031 240.289062 102.421875 241.003906 C 101.898438 236.785156 100.996094 232.582031 101.234375 228.308594 C 100.519531 229.019531 99.808594 229.734375 99.097656 230.445312 C 105.886719 229.921875 112.699219 230.378906 119.347656 231.871094 C 122.027344 232.46875 123.175781 228.34375 120.488281 227.746094 C 113.476562 226.179688 106.269531 225.628906 99.105469 226.167969 C 97.898438 226.265625 97.035156 227.070312 96.96875 228.308594 C 96.730469 232.582031 97.632812 236.773438 98.15625 241.003906 C 98.308594 242.210938 99.019531 243.066406 100.292969 243.140625 C 108.539062 243.644531 116.773438 244.140625 125.019531 244.644531 C 124.308594 243.929688 123.59375 243.21875 122.882812 242.503906 C 122.84375 245.097656 123.054688 247.65625 123.425781 250.222656 C 123.917969 249.347656 124.421875 248.464844 124.914062 247.589844 C 113.328125 249.660156 101.214844 251.769531 89.625 248.539062 C 86.964844 247.808594 85.824219 251.933594 88.484375 252.664062 Z M 88.484375 252.664062 " fill-opacity="1" fill-rule="nonzero"/><path fill="#000000" d="M 171.148438 201.441406 C 171.160156 204.007812 171.179688 206.574219 171.1875 209.140625 C 171.1875 209.730469 171.195312 210.328125 171.195312 210.917969 C 171.195312 211.621094 171.121094 212.417969 171.332031 213.101562 C 171.832031 214.804688 173.421875 215.078125 174.960938 215.117188 C 177.417969 215.164062 179.871094 215.164062 182.332031 215.109375 C 183.566406 215.078125 184.800781 215.058594 186.027344 214.964844 C 186.679688 214.917969 187.335938 214.84375 187.984375 214.738281 C 188.847656 214.605469 189.417969 214.289062 189.957031 213.558594 C 190.480469 212.867188 190.292969 211.523438 189.625 210.964844 C 189.605469 210.945312 189.589844 210.925781 189.570312 210.917969 C 188.703125 210.183594 187.394531 210.023438 186.546875 210.917969 C 186.539062 210.925781 186.519531 210.945312 186.511719 210.953125 C 185.710938 211.792969 185.675781 213.148438 186.511719 213.976562 C 187.308594 214.777344 188.734375 214.8125 189.53125 213.976562 C 189.539062 213.96875 189.558594 213.949219 189.570312 213.9375 C 188.5625 213.9375 187.554688 213.9375 186.546875 213.9375 C 186.566406 213.957031 186.585938 213.976562 186.605469 213.988281 C 186.492188 213.121094 186.386719 212.257812 186.273438 211.390625 C 186.253906 211.421875 186.234375 211.441406 186.214844 211.46875 C 186.644531 211.144531 187.070312 210.8125 187.488281 210.488281 C 186.585938 210.792969 185.457031 210.726562 184.488281 210.765625 C 183.28125 210.8125 182.082031 210.839844 180.878906 210.859375 C 179.71875 210.878906 178.558594 210.878906 177.410156 210.878906 C 176.832031 210.878906 176.25 210.871094 175.671875 210.859375 C 175.328125 210.851562 174.996094 210.851562 174.65625 210.839844 C 174.511719 210.839844 174.371094 210.832031 174.21875 210.832031 C 174.4375 210.886719 174.425781 210.871094 174.191406 210.792969 C 174.503906 210.972656 174.816406 211.164062 175.128906 211.34375 C 175.394531 211.5625 175.460938 212.617188 175.453125 211.667969 C 175.453125 211.46875 175.453125 211.269531 175.453125 211.078125 C 175.453125 210.632812 175.445312 210.195312 175.445312 209.75 C 175.433594 208.808594 175.433594 207.875 175.425781 206.933594 C 175.414062 205.109375 175.40625 203.285156 175.394531 201.460938 C 175.386719 200.300781 174.417969 199.324219 173.257812 199.324219 C 172.136719 199.304688 171.140625 200.28125 171.148438 201.441406 Z M 171.148438 201.441406 " fill-opacity="1" fill-rule="nonzero"/><path fill="#000000" d="M 173.589844 202.542969 C 178.484375 202.335938 183.386719 202.308594 188.285156 202.46875 C 187.574219 201.757812 186.863281 201.042969 186.148438 200.332031 C 186.511719 203.703125 186.519531 207.105469 186.167969 210.480469 C 186.054688 211.628906 187.230469 212.617188 188.304688 212.617188 C 189.558594 212.617188 190.328125 211.628906 190.441406 210.480469 C 190.785156 207.097656 190.785156 203.703125 190.425781 200.332031 C 190.300781 199.152344 189.550781 198.230469 188.285156 198.191406 C 183.386719 198.03125 178.492188 198.058594 173.589844 198.269531 C 172.441406 198.316406 171.453125 199.21875 171.453125 200.40625 C 171.453125 201.527344 172.433594 202.59375 173.589844 202.542969 Z M 173.589844 202.542969 " fill-opacity="1" fill-rule="nonzero"/><path fill="#000000" d="M 171.148438 228.621094 C 171.160156 231.1875 171.179688 233.753906 171.1875 236.320312 C 171.1875 236.90625 171.195312 237.507812 171.195312 238.09375 C 171.195312 238.796875 171.121094 239.597656 171.332031 240.28125 C 171.832031 241.980469 173.421875 242.257812 174.960938 242.296875 C 177.417969 242.34375 179.871094 242.34375 182.332031 242.285156 C 183.566406 242.257812 184.800781 242.238281 186.027344 242.144531 C 186.679688 242.097656 187.335938 242.019531 187.984375 241.914062 C 188.847656 241.78125 189.417969 241.46875 189.957031 240.738281 C 190.480469 240.042969 190.292969 238.703125 189.625 238.144531 C 189.605469 238.125 189.589844 238.105469 189.570312 238.09375 C 188.703125 237.363281 187.394531 237.203125 186.546875 238.09375 C 186.539062 238.105469 186.519531 238.125 186.511719 238.132812 C 185.710938 238.96875 185.675781 240.328125 186.511719 241.15625 C 187.308594 241.953125 188.734375 241.992188 189.53125 241.15625 C 189.539062 241.144531 189.558594 241.128906 189.570312 241.117188 C 188.5625 241.117188 187.554688 241.117188 186.546875 241.117188 C 186.566406 241.136719 186.585938 241.15625 186.605469 241.164062 C 186.492188 240.300781 186.386719 239.433594 186.273438 238.570312 C 186.253906 238.597656 186.234375 238.617188 186.214844 238.648438 C 186.644531 238.324219 187.070312 237.992188 187.488281 237.667969 C 186.585938 237.972656 185.457031 237.90625 184.488281 237.945312 C 183.28125 237.992188 182.082031 238.019531 180.878906 238.039062 C 179.71875 238.058594 178.558594 238.058594 177.410156 238.058594 C 176.832031 238.058594 176.25 238.046875 175.671875 238.039062 C 175.328125 238.027344 174.996094 238.027344 174.65625 238.019531 C 174.511719 238.019531 174.371094 238.011719 174.21875 238.011719 C 174.4375 238.066406 174.425781 238.046875 174.191406 237.972656 C 174.503906 238.152344 174.816406 238.34375 175.128906 238.523438 C 175.394531 238.742188 175.460938 239.796875 175.453125 238.847656 C 175.453125 238.648438 175.453125 238.445312 175.453125 238.257812 C 175.453125 237.808594 175.445312 237.375 175.445312 236.925781 C 175.433594 235.984375 175.433594 235.054688 175.425781 234.113281 C 175.414062 232.289062 175.40625 230.464844 175.394531 228.640625 C 175.386719 227.480469 174.417969 226.5 173.257812 226.5 C 172.136719 226.484375 171.140625 227.460938 171.148438 228.621094 Z M 171.148438 228.621094 " fill-opacity="1" fill-rule="nonzero"/><path fill="#000000" d="M 173.589844 229.722656 C 178.484375 229.515625 183.386719 229.484375 188.285156 229.648438 C 187.574219 228.933594 186.863281 228.222656 186.148438 227.507812 C 186.511719 230.882812 186.519531 234.285156 186.167969 237.660156 C 186.054688 238.808594 187.230469 239.796875 188.304688 239.796875 C 189.558594 239.796875 190.328125 238.808594 190.441406 237.660156 C 190.785156 234.273438 190.785156 230.882812 190.425781 227.507812 C 190.300781 226.332031 189.550781 225.410156 188.285156 225.371094 C 183.386719 225.210938 178.492188 225.238281 173.589844 225.445312 C 172.441406 225.496094 171.453125 226.398438 171.453125 227.585938 C 171.453125 228.707031 172.433594 229.769531 173.589844 229.722656 Z M 173.589844 229.722656 " fill-opacity="1" fill-rule="nonzero"/><path fill="#000000" d="M 160.71875 265.808594 C 160.234375 277.277344 160.179688 288.769531 160.546875 300.238281 C 160.585938 301.472656 161.5 302.273438 162.6875 302.375 C 167.738281 302.84375 172.765625 303.394531 177.847656 303.507812 C 180.601562 303.574219 180.601562 299.296875 177.847656 299.230469 C 172.773438 299.117188 167.738281 298.566406 162.6875 298.101562 C 163.398438 298.8125 164.109375 299.527344 164.824219 300.238281 C 164.453125 288.757812 164.507812 277.277344 164.992188 265.808594 C 165.117188 263.050781 160.84375 263.0625 160.71875 265.808594 Z M 160.71875 265.808594 " fill-opacity="1" fill-rule="nonzero"/><path fill="#000000" d="M 164.328125 267.453125 C 168.917969 267.726562 173.515625 267.859375 178.113281 267.851562 C 177.398438 267.136719 176.6875 266.425781 175.976562 265.710938 C 177.152344 276.699219 177.050781 287.789062 175.671875 298.753906 C 175.527344 299.90625 176.753906 300.894531 177.808594 300.894531 C 179.082031 300.894531 179.804688 299.90625 179.945312 298.753906 C 181.332031 287.789062 181.4375 276.699219 180.25 265.710938 C 180.125 264.5625 179.367188 263.574219 178.113281 263.574219 C 173.515625 263.582031 168.917969 263.449219 164.328125 263.175781 C 161.582031 263.011719 161.59375 267.289062 164.328125 267.453125 Z M 164.328125 267.453125 " fill-opacity="1" fill-rule="nonzero"/><path fill="#000000" d="M 186.3125 265.808594 C 185.828125 277.277344 185.769531 288.769531 186.140625 300.238281 C 186.179688 301.472656 187.089844 302.273438 188.277344 302.375 C 193.332031 302.84375 198.355469 303.394531 203.4375 303.507812 C 206.191406 303.574219 206.191406 299.296875 203.4375 299.230469 C 198.367188 299.117188 193.332031 298.566406 188.277344 298.101562 C 188.988281 298.8125 189.703125 299.527344 190.414062 300.238281 C 190.042969 288.757812 190.101562 277.277344 190.585938 265.808594 C 190.699219 263.050781 186.425781 263.0625 186.3125 265.808594 Z M 186.3125 265.808594 " fill-opacity="1" fill-rule="nonzero"/><path fill="#000000" d="M 189.921875 267.453125 C 194.507812 267.726562 199.105469 267.859375 203.703125 267.851562 C 202.992188 267.136719 202.28125 266.425781 201.566406 265.710938 C 202.746094 276.699219 202.640625 287.789062 201.261719 298.753906 C 201.121094 299.90625 202.347656 300.894531 203.402344 300.894531 C 204.671875 300.894531 205.394531 299.90625 205.539062 298.753906 C 206.925781 287.789062 207.027344 276.699219 205.84375 265.710938 C 205.71875 264.5625 204.957031 263.574219 203.703125 263.574219 C 199.105469 263.582031 194.507812 263.449219 189.921875 263.175781 C 187.175781 263.011719 187.183594 267.289062 189.921875 267.453125 Z M 189.921875 267.453125 " fill-opacity="1" fill-rule="nonzero"/><path fill="#ffffff" d="M 344.960938 44.257812 C 334.722656 41.511719 322.238281 46.964844 315.550781 55.203125 C 311.988281 59.605469 309.871094 64.964844 307.695312 70.183594 C 305.511719 75.410156 303.15625 80.703125 299.242188 84.789062 C 295.328125 88.875 289.511719 91.582031 283.992188 90.367188 L 273.695312 90.984375 C 294.84375 99.054688 310.78125 119.398438 313.546875 141.863281 C 309.300781 129.347656 295.203125 119.378906 283.253906 113.734375 C 271.3125 108.082031 258.355469 103.605469 248.921875 94.347656 L 243.945312 92.25 C 229.449219 112.433594 204.585938 124.722656 179.757812 123.988281 C 195.828125 119.027344 210.203125 106.695312 217.746094 91.496094 C 196.238281 71.675781 166.589844 60.984375 137.398438 62.542969 C 150.488281 55.824219 165.761719 53.464844 180.277344 55.898438 C 191.164062 57.722656 201.585938 62.257812 210.421875 68.890625 L 210.933594 65.058594 C 194.167969 58.855469 182.082031 41.957031 180.402344 24.148438 C 184.742188 32.3125 193.929688 36.652344 202.859375 39.050781 C 211.789062 41.433594 221.203125 42.480469 229.476562 46.59375 C 237.761719 50.710938 244.914062 59.089844 243.886719 68.28125 L 246.605469 77.585938 C 252.855469 65.867188 255.078125 52.050781 252.828125 38.953125 C 250.566406 25.867188 243.847656 13.589844 234.035156 4.636719 C 244.324219 2.128906 254.117188 2.136719 264.1875 5.386719 C 277.390625 28.898438 275.816406 59.9375 260.300781 81.996094 L 262.257812 83.839844 C 272.992188 83.621094 281.789062 75.351562 288.25 66.761719 C 294.699219 58.179688 300.324219 48.449219 309.460938 42.820312 C 320.160156 36.226562 334.835938 36.816406 344.960938 44.257812 Z M 344.960938 44.257812 " fill-opacity="1" fill-rule="nonzero"/><path fill="#000000" d="M 262.15625 83.078125 C 270.382812 71.3125 274.769531 57.085938 275.214844 42.773438 C 275.445312 35.5625 274.648438 28.28125 272.839844 21.296875 C 271.9375 17.800781 270.75 14.398438 269.347656 11.070312 C 268.652344 9.4375 267.902344 7.828125 267.085938 6.253906 C 266.6875 5.492188 266.316406 4.496094 265.707031 3.875 C 264.929688 3.097656 263.390625 2.886719 262.363281 2.613281 C 252.863281 0.0195312 243.011719 0.285156 233.484375 2.574219 C 231.957031 2.945312 231.367188 5.074219 232.542969 6.148438 C 247.25 19.660156 254.289062 40.167969 250.574219 59.851562 C 249.472656 65.667969 247.542969 71.273438 244.78125 76.511719 C 243.496094 78.941406 247.183594 81.109375 248.476562 78.667969 C 258.761719 59.203125 258.136719 35.292969 246.59375 16.515625 C 243.554688 11.574219 239.839844 7.050781 235.574219 3.125 C 235.261719 4.3125 234.949219 5.511719 234.632812 6.699219 C 244.304688 4.371094 254.128906 4.417969 263.644531 7.449219 C 263.21875 7.125 262.792969 6.792969 262.375 6.472656 C 272.375 24.394531 273.582031 46.535156 266.496094 65.703125 C 264.5 71.09375 261.785156 76.207031 258.496094 80.910156 C 257.832031 81.859375 258.328125 83.285156 259.265625 83.835938 C 260.292969 84.464844 261.488281 84.019531 262.15625 83.078125 Z M 262.15625 83.078125 " fill-opacity="1" fill-rule="nonzero"/><path fill="#000000" d="M 246.023438 68.28125 C 247.125 57.304688 238.195312 48.066406 228.832031 43.933594 C 217.925781 39.132812 205.585938 38.984375 194.792969 33.9375 C 189.664062 31.542969 185.007812 28.128906 182.265625 23.066406 C 181.296875 21.289062 178.066406 21.992188 178.285156 24.148438 C 179.726562 38.839844 187.488281 52.582031 199.429688 61.277344 C 202.792969 63.730469 206.476562 65.660156 210.375 67.121094 C 211.457031 67.53125 212.71875 66.675781 213.003906 65.628906 C 213.335938 64.433594 212.597656 63.40625 211.511719 62.996094 C 199.085938 58.339844 189.398438 47.46875 185.027344 35.058594 C 183.785156 31.53125 182.917969 27.863281 182.558594 24.136719 C 181.230469 24.5 179.898438 24.859375 178.578125 25.222656 C 183.738281 34.726562 194.386719 39.183594 204.378906 41.632812 C 215.238281 44.304688 227.632812 45.472656 235.925781 53.808594 C 239.785156 57.675781 242.320312 62.722656 241.769531 68.28125 C 241.65625 69.429688 242.832031 70.417969 243.90625 70.417969 C 245.132812 70.417969 245.902344 69.441406 246.023438 68.28125 Z M 246.023438 68.28125 " fill-opacity="1" fill-rule="nonzero"/><path fill="#000000" d="M 220.148438 74.667969 C 212.167969 66.398438 202.222656 60.15625 191.34375 56.476562 C 179.964844 52.636719 167.691406 51.886719 155.894531 54.035156 C 149.082031 55.28125 142.488281 57.550781 136.324219 60.6875 C 134.453125 61.636719 135.316406 64.78125 137.40625 64.667969 C 160.074219 63.5 182.835938 69.695312 201.917969 81.945312 C 207.3125 85.414062 212.378906 89.359375 217.050781 93.75 C 219.054688 95.628906 222.085938 92.609375 220.070312 90.726562 C 202.820312 74.550781 180.535156 64.230469 157.128906 61.171875 C 150.59375 60.316406 143.992188 60.050781 137.40625 60.390625 C 137.769531 61.722656 138.128906 63.054688 138.492188 64.375 C 148.816406 59.117188 160.445312 56.65625 172.015625 57.160156 C 182.9375 57.636719 193.652344 60.933594 203.050781 66.511719 C 208.234375 69.589844 212.949219 73.34375 217.136719 77.679688 C 219.035156 79.675781 222.058594 76.644531 220.148438 74.667969 Z M 220.148438 74.667969 " fill-opacity="1" fill-rule="nonzero"/><path fill="#000000" d="M 262.257812 85.976562 C 276.519531 85.558594 286.082031 73.546875 293.675781 62.910156 C 297.558594 57.464844 301.453125 51.917969 306.574219 47.546875 C 311.371094 43.449219 317.316406 40.929688 323.617188 40.472656 C 330.828125 39.953125 338.007812 41.851562 343.878906 46.101562 C 344.429688 44.796875 344.980469 43.496094 345.523438 42.195312 C 335.386719 39.570312 324.289062 43.773438 316.824219 50.71875 C 312.558594 54.691406 309.804688 59.792969 307.523438 65.089844 C 305.195312 70.484375 303.203125 76.148438 299.695312 80.929688 C 296.304688 85.566406 290.539062 89.53125 284.546875 88.304688 C 281.855469 87.753906 280.707031 91.878906 283.40625 92.429688 C 289.226562 93.625 294.964844 91.441406 299.363281 87.609375 C 303.761719 83.78125 306.46875 78.402344 308.730469 73.128906 C 311.066406 67.683594 313.082031 61.921875 316.699219 57.152344 C 319.730469 53.160156 323.957031 50.109375 328.5 48.078125 C 333.417969 45.882812 339.101562 44.949219 344.371094 46.320312 C 346.832031 46.957031 347.917969 43.792969 346.015625 42.414062 C 335.175781 34.5625 319.558594 33.984375 308.199219 41.074219 C 296.25 48.535156 290.664062 62.027344 281.105469 71.855469 C 276.0625 77.035156 269.699219 81.480469 262.238281 81.710938 C 259.515625 81.785156 259.503906 86.0625 262.257812 85.976562 Z M 262.257812 85.976562 " fill-opacity="1" fill-rule="nonzero"/><path fill="#000000" d="M 273.136719 93.046875 C 288.867188 99.097656 301.71875 112.320312 307.820312 127.988281 C 309.546875 132.445312 310.8125 137.121094 311.410156 141.863281 C 312.804688 141.675781 314.210938 141.484375 315.609375 141.292969 C 312.152344 131.324219 303.925781 123.789062 295.347656 118.085938 C 286.199219 112.003906 275.804688 108.402344 266.050781 103.460938 C 260.40625 100.601562 254.992188 97.273438 250.433594 92.835938 C 248.457031 90.917969 245.4375 93.9375 247.410156 95.859375 C 255.550781 103.785156 266.039062 108.308594 276.261719 112.878906 C 285.722656 117.097656 294.964844 121.886719 302.460938 129.1875 C 306.308594 132.929688 309.710938 137.3125 311.484375 142.433594 C 311.835938 143.433594 312.738281 144.125 313.832031 143.964844 C 314.773438 143.820312 315.816406 142.929688 315.683594 141.863281 C 313.367188 123.511719 303.019531 106.777344 287.917969 96.152344 C 283.679688 93.179688 279.09375 90.773438 274.265625 88.921875 C 273.191406 88.503906 271.921875 89.378906 271.636719 90.414062 C 271.300781 91.628906 272.054688 92.636719 273.136719 93.046875 Z M 273.136719 93.046875 " fill-opacity="1" fill-rule="nonzero"/><path fill="#000000" d="M 242.101562 91.164062 C 231.074219 106.425781 213.992188 116.921875 195.59375 120.550781 C 190.375 121.578125 185.066406 121.996094 179.757812 121.851562 C 179.945312 123.25 180.136719 124.65625 180.328125 126.050781 C 195.574219 121.292969 208.910156 110.609375 217.183594 96.964844 C 219.511719 93.125 221.402344 89.019531 222.828125 84.761719 C 223.699219 82.148438 219.578125 81.027344 218.703125 83.621094 C 213.992188 97.683594 203.496094 109.613281 190.679688 116.910156 C 187.03125 118.992188 183.195312 120.671875 179.195312 121.917969 C 176.898438 122.628906 177.324219 126.050781 179.765625 126.121094 C 199.707031 126.652344 219.503906 119.132812 234.417969 105.953125 C 238.679688 102.179688 242.472656 97.933594 245.804688 93.3125 C 246.480469 92.371094 245.96875 90.929688 245.035156 90.386719 C 243.945312 89.769531 242.785156 90.234375 242.101562 91.164062 Z M 242.101562 91.164062 " fill-opacity="1" fill-rule="nonzero"/></svg>